<svg width="140" height="140" viewBox="0 0 140 140" fill="none" xmlns="http://www.w3.org/2000/svg">
<rect opacity="0.01" width="140" height="140" fill="white"/>
<path d="M51.9214 109C51.9214 106.791 53.7122 105 55.9214 105H83.9214C86.1305 105 87.9214 106.791 87.9214 109V121H51.9214V109Z" fill="#336DFF"/>
<path fill-rule="evenodd" clip-rule="evenodd" d="M59.9214 88H79.9214L82.9214 105H56.9214L59.9214 88Z" fill="#131523"/>
<path fill-rule="evenodd" clip-rule="evenodd" d="M104.833 27H99.7675C96.5436 27 93.8959 29.5478 93.772 32.7694L92.9219 54.9315L92.9214 55C92.9214 58.3137 95.6077 61 98.9214 61H103.833C113.247 61 120.978 53.5606 121.34 44.1537C121.348 43.9422 121.352 43.7305 121.352 43.5189C121.352 34.3957 113.956 27 104.833 27ZM100.999 53L101.692 35H104.833C109.538 35 113.352 38.814 113.352 43.5189C113.352 43.628 113.35 43.7372 113.346 43.8463C113.149 48.9577 108.949 53 103.833 53H100.999Z" fill="#131523"/>
<path fill-rule="evenodd" clip-rule="evenodd" d="M35.4402 27H40.5061C43.7301 27 46.3777 29.5478 46.5016 32.7694L47.3517 54.9315L47.3522 55C47.3522 58.3137 44.6659 61 41.3522 61H36.4402C27.0264 61 19.2954 53.5606 18.9336 44.1537C18.9255 43.9422 18.9214 43.7305 18.9214 43.5189C18.9214 34.3957 26.3171 27 35.4402 27ZM39.2746 53L38.5816 35H35.4402C30.7354 35 26.9214 38.814 26.9214 43.5189L26.9277 43.8463C27.1243 48.9577 31.3251 53 36.4402 53H39.2746Z" fill="#131523"/>
<path fill-rule="evenodd" clip-rule="evenodd" d="M37.9214 19H101.921V70.949C101.921 72.2366 101.302 73.4455 100.256 74.197L72.2559 94.322C70.861 95.3246 68.9817 95.3246 67.5868 94.322L39.5868 74.197C38.5413 73.4455 37.9214 72.2366 37.9214 70.949V19Z" fill="#336DFF"/>
<path fill-rule="evenodd" clip-rule="evenodd" d="M69.9997 59.2L61.183 64.1353L63.1521 54.2249L55.7339 47.3647L65.7677 46.1751L69.9997 37L74.2318 46.1751L84.2656 47.3647L76.8473 54.2249L78.8165 64.1353L69.9997 59.2Z" fill="white"/>
</svg>
