<svg xmlns="http://www.w3.org/2000/svg" xmlns:xlink="http://www.w3.org/1999/xlink">
	<!-- Nav icons -->
	<symbol id="home" viewBox="0 0 24 24" fill="none" xmlns="http://www.w3.org/2000/svg">
		<path
			fill-rule="evenodd"
			clip-rule="evenodd"
			d="M13.3287 3.51558C13.3873 3.56764 13.4428 3.6231 13.4948 3.68167L19.4948 10.4317C19.8202 10.7978 20 11.2706 20 11.7604V19C20 20.1046 19.1046 21 18 21H14.002C14.0013 21 14.0007 21 14 21H10C9.99934 21 9.99868 21 9.99803 21H6C4.89543 21 4 20.1046 4 19V11.7604C4 11.2706 4.17976 10.7978 4.50518 10.4317L10.5052 3.68167C11.239 2.8561 12.5032 2.78174 13.3287 3.51558ZM11 19H13V15H11V19ZM15 19V14C15 13.4477 14.5523 13 14 13H10C9.44772 13 9 13.4477 9 14V19H6V11.7604L12 5.0104L18 11.7604V19H15Z"
			fill="currentColor"
		/>
	</symbol>
	<symbol id="users" viewBox="0 0 24 24" fill="none" xmlns="http://www.w3.org/2000/svg">
		<path
			fill-rule="evenodd"
			clip-rule="evenodd"
			d="M17 11C19.0871 11 20.9253 12.0656 22.0002 13.6825L21.9993 17H14L13.999 18.952L14.0215 20H2V19C2 15.6863 4.68629 13 8 13C9.37834 13 10.6509 13.4657 11.6662 14.2518C12.662 12.3204 14.6768 11 17 11ZM8 15C6.26204 15 4.78296 16.1084 4.23109 17.6569L4.16936 17.8447L4.126 18H11.873L11.8362 17.8625C11.3827 16.3295 10.0355 15.1846 8.4051 15.0203L8.19987 15.0049L8 15ZM17 13C15.6048 13 14.3764 13.7144 13.6606 14.7973L13.535 15H20.464L20.3707 14.845C19.6927 13.7872 18.5304 13.0708 17.2007 13.005L17 13ZM8 4C10.2091 4 12 5.79086 12 8C12 10.2091 10.2091 12 8 12C5.79086 12 4 10.2091 4 8C4 5.79086 5.79086 4 8 4ZM17 4C18.6569 4 20 5.34315 20 7C20 8.65685 18.6569 10 17 10C15.3431 10 14 8.65685 14 7C14 5.34315 15.3431 4 17 4ZM8 6C6.89543 6 6 6.89543 6 8C6 9.10457 6.89543 10 8 10C9.10457 10 10 9.10457 10 8C10 6.89543 9.10457 6 8 6ZM17 6C16.7239 6 16 6 16 6C16 6 16 6.72386 16 7C16 7.27614 16 8 16 8C16 8 16.7239 8 17 8C17.2761 8 18 8 18 8C18 8 18 7.27614 18 7C18 6.86441 18 6 18 6C18 6 17.1356 6 17 6Z"
			fill="currentColor"
		/>
	</symbol>
	<symbol id="roles" viewBox="0 0 24 24" fill="none" xmlns="http://www.w3.org/2000/svg">
		<path
			fill-rule="evenodd"
			clip-rule="evenodd"
			d="M12 2C15.866 2 19 5.13401 19 9C19 11.3782 17.8141 13.4793 16.0013 14.7444L16 22L12 19L8 22L7.99967 14.7451C6.18637 13.4801 5 11.3786 5 9C5 5.13401 8.13401 2 12 2ZM14 16H10V18L12 17L14 18V16ZM12 4C9.23858 4 7 6.23858 7 9C7 11.7614 9.23858 14 12 14C14.7614 14 17 11.7614 17 9C17 6.23858 14.7614 4 12 4Z"
			fill="currentColor"
		/>
	</symbol>
	<symbol id="sales" viewBox="0 0 24 24" fill="none" xmlns="http://www.w3.org/2000/svg">
		<path
			fill-rule="evenodd"
			clip-rule="evenodd"
			d="M18.7857 19C19.4563 19 20 19.4477 20 20C20 20.5523 19.4563 21 18.7857 21H4.21429C3.54365 21 3 20.5523 3 20C3 19.4477 3.54365 19 4.21429 19H18.7857ZM18 3C19.1046 3 20 3.89543 20 5V17H3V13C3 11.8954 3.89543 11 5 11H8V9C8 7.89543 8.89543 7 10 7H13V5C13 3.89543 13.8954 3 15 3H18ZM8 13H5V15H8V13ZM13 9H10V15H13V9ZM18 5H15V15H18V5Z"
			fill="currentColor"
		/>
	</symbol>
	<symbol id="purchases" viewBox="0 0 24 24" fill="none" xmlns="http://www.w3.org/2000/svg">
		<path
			fill-rule="evenodd"
			clip-rule="evenodd"
			d="M13 4C14.1046 4 15 4.89543 15 6V7H19.618L22 11.7639V17H20C20 18.6569 18.6569 20 17 20C15.3431 20 14 18.6569 14 17H10C10 18.6569 8.65685 20 7 20C5.34315 20 4 18.6569 4 17H2V6C2 4.89543 2.89543 4 4 4H13ZM7 16C6.72386 16 6 16 6 16C6 16 6 16.7239 6 17C6 17.2761 6 18 6 18C6 18 6.72386 18 7 18C7.27614 18 8 18 8 18C8 18 8 17.2761 8 17C8 16.7239 8 16 8 16C8 16 7.27614 16 7 16ZM17 16C16.7449 16 16 16 16 16V17C16 17.2761 16 18 16 18C16 18 16.7239 18 17 18C17.2761 18 18 18 18 18C18 18 18 17.2761 18 17C18 16.7239 18 16 18 16C18 16 17.2761 16 17 16ZM13 6H4V15L4.76381 15.0001C5.31313 14.3863 6.11145 14 7 14C7.88855 14 8.68687 14.3863 9.23619 15.0001L13 15V6ZM18.381 9H15L15.0001 14.7638C15.5308 14.2888 16.2317 14 17 14C17.8885 14 18.6869 14.3863 19.2362 15.0001L20 15V12.237L18.381 9Z"
			fill="currentColor"
		/>
	</symbol>
	<symbol id="inventory" viewBox="0 0 24 24" fill="none" xmlns="http://www.w3.org/2000/svg">
		<path
			fill-rule="evenodd"
			clip-rule="evenodd"
			d="M18 4C19.1046 4 20 4.89543 20 6V10H19V18C19 19.1046 18.1046 20 17 20H7C5.89543 20 5 19.1046 5 18V10H4V6C4 4.89543 4.89543 4 6 4H18ZM17 10H7V18H17V10ZM15 12V14H9V12H15ZM18 6H6V8H18V6Z"
			fill="currentColor"
		/>
	</symbol>
	<symbol id="approvals" viewBox="0 0 24 24" fill="none" xmlns="http://www.w3.org/2000/svg">
		<path
			d="M0.751601 11.4515C0.751601 8.44985 0.751601 5.44819 0.751972 2.44653C0.751972 1.52637 1.50588 0.756924 2.40894 0.756924C7.12012 0.756924 11.8317 0.762576 16.5432 0.75391C17.5535 0.752026 18.3063 1.52712 18.2959 2.55807C18.2796 4.1904 18.29 5.82349 18.29 7.4562C18.29 9.05124 18.2896 10.6463 18.2922 12.2413C18.2926 12.5412 18.2429 12.8114 17.9891 13.0096C17.5602 13.3446 16.9488 13.0631 16.8582 12.6324C16.83 12.4987 16.8048 12.3607 16.8044 12.2247C16.8011 9.07874 16.8022 5.93277 16.8011 2.78679C16.8011 2.23741 16.843 2.2521 16.2761 2.2521C11.6885 2.25285 7.10046 2.2521 2.51282 2.2521C2.29986 2.2521 2.22157 2.32784 2.21675 2.54187C2.21452 2.6485 2.21675 2.75552 2.21675 2.86215C2.21675 8.67066 2.21675 14.4792 2.21675 20.288C2.21675 20.5797 2.25979 20.6245 2.55178 20.6245C4.69107 20.6249 6.83036 20.6245 8.96964 20.6245C9.56179 20.6245 10.1543 20.623 10.7464 20.6249C11.3045 20.6264 11.6428 21.0447 11.536 21.5959C11.4911 21.8269 11.2262 22.079 10.9813 22.1163C10.89 22.1303 10.7965 22.1352 10.7042 22.1352C7.96493 22.1359 5.22608 22.1359 2.48685 22.1359C1.94071 22.1359 1.4736 21.9584 1.12893 21.5082C0.887394 21.1931 0.750488 20.842 0.750488 20.4376C0.751601 17.4424 0.75123 14.4468 0.751601 11.4515Z"
			fill="currentColor"
		/>
		<path
			d="M10.4951 16.8194C10.4524 16.1581 10.6903 15.6754 11.2256 15.3227C11.9595 14.8393 12.68 14.3347 13.3998 13.8298C13.8643 13.5039 14.3659 13.4771 14.8616 13.6798C15.2909 13.8554 15.7042 14.0849 16.0963 14.3362C16.3457 14.496 16.5891 14.5959 16.8751 14.551C17.2832 14.487 17.7081 14.4188 18.0186 14.1267C18.3176 13.8456 18.5829 13.5186 18.8226 13.1821C19.1598 12.7084 19.4615 12.2058 19.9045 11.8226C20.3816 11.4096 20.92 11.1496 21.5689 11.2799C22.1803 11.4028 22.653 11.7412 22.9665 12.2906C23.1475 12.6082 23.2678 12.9549 23.2481 13.3256C23.2151 13.9496 22.9357 14.45 22.4623 14.8487C21.9844 15.2508 21.4197 15.4949 20.8751 15.7764C20.4914 15.975 20.0874 16.1611 19.8306 16.5266C19.3658 17.1887 19.1647 17.9159 19.421 18.7227C19.575 19.2076 19.67 19.7054 19.5197 20.1998C19.4444 20.447 19.3005 20.696 19.1257 20.8848C18.4861 21.5759 17.8264 22.2485 17.1608 22.9139C16.963 23.1117 16.7093 23.2282 16.4177 23.2489C15.7799 23.2937 15.2293 23.0522 14.6961 22.7379C13.7063 22.1543 12.9123 21.3487 12.1988 20.4549C11.6456 19.7623 11.1718 19.0166 10.8372 18.1891C10.6569 17.7437 10.4999 17.2878 10.4951 16.8198V16.8194ZM16.2199 22.2805C16.4859 22.2816 16.5757 22.2217 16.5965 21.9542C16.6121 21.7575 16.602 21.5487 16.5549 21.3581C16.3624 20.5796 15.9902 19.8844 15.5402 19.2314C14.9195 18.3308 14.1941 17.5301 13.3107 16.8869C12.9082 16.5937 12.4808 16.3473 11.994 16.2244C11.646 16.1366 11.4401 16.2776 11.449 16.6419C11.4553 16.9016 11.4902 17.1698 11.5677 17.4159C11.7714 18.0618 12.0864 18.6575 12.4693 19.211C13.1954 20.2608 14.0424 21.1923 15.1265 21.8728C15.4593 22.0819 15.807 22.2782 16.2195 22.2805H16.2199ZM18.679 19.8056C18.5833 19.0867 18.3737 18.4793 18.0171 17.9438C17.6301 17.3624 17.2209 16.7908 16.7668 16.2629C16.1828 15.5839 15.5283 14.9738 14.6787 14.6369C14.4394 14.542 14.1852 14.4704 13.9474 14.6185C13.6547 14.8009 13.3783 15.01 13.0941 15.2067C12.877 15.3566 12.8896 15.5149 13.1286 15.6351C13.1835 15.663 13.2362 15.6958 13.2892 15.7274C13.9819 16.1389 14.587 16.6581 15.1477 17.2392C15.7046 17.8165 16.1895 18.4484 16.611 19.1315C16.9256 19.6417 17.196 20.173 17.3511 20.7597C17.4268 21.0453 17.5734 21.089 17.79 20.8901C18.0368 20.6636 18.2824 20.4326 18.5024 20.1805C18.6011 20.0675 18.6371 19.8979 18.6786 19.806L18.679 19.8056ZM21.2583 12.2092C21.071 12.2065 20.7311 12.3802 20.5526 12.5359C20.1961 12.8456 19.9579 13.2484 19.6793 13.6214C19.3832 14.0175 19.0764 14.4082 18.7413 14.77C18.4924 15.039 18.1659 15.2112 17.8101 15.3156C17.5856 15.3811 17.4932 15.5967 17.6197 15.7625C17.8271 16.0341 18.0405 16.3013 18.2609 16.5624C18.4219 16.7527 18.6052 16.7312 18.712 16.5108C18.9628 15.9942 19.3153 15.5729 19.8106 15.2858C20.1471 15.0906 20.4888 14.9041 20.832 14.721C21.229 14.5088 21.6382 14.3219 21.9662 13.9941C22.2816 13.6787 22.3684 13.3219 22.2148 12.904C22.0786 12.5336 21.6371 12.2152 21.2579 12.2099L21.2583 12.2092Z"
			fill="currentColor"
		/>
		<path
			d="M9.7059 12.9238C7.03865 12.951 5.08599 10.753 4.95205 8.50763C4.76209 5.32171 7.14625 3.32011 9.57456 3.25756C12.4136 3.18446 14.3158 5.486 14.4575 7.68091C14.6616 10.8472 12.2355 12.9653 9.7059 12.9238ZM6.01019 8.08071C5.95528 10.0446 7.58962 11.874 9.71629 11.8718C11.6556 11.8695 13.4012 10.2914 13.4031 8.09126C13.4049 6.03916 11.794 4.30697 9.64431 4.33071C7.63117 4.35294 5.99201 6.02785 6.01056 8.08071H6.01019Z"
			fill="currentColor"
		/>
		<path
			d="M7.23843 14.2486C8.23387 14.2486 9.22931 14.2482 10.2248 14.2486C10.5627 14.2486 10.7368 14.4272 10.7353 14.7701C10.7338 15.0783 10.5323 15.2826 10.221 15.2833C9.51017 15.2845 8.79893 15.2822 8.08806 15.2822C6.82066 15.2822 5.55327 15.2852 4.28587 15.2811C3.94787 15.2799 3.82878 15.1115 3.74381 14.8202C3.69707 14.6589 3.83026 14.3907 4.00427 14.3029C4.07773 14.2659 4.169 14.2509 4.25248 14.2505C5.24792 14.2471 6.24336 14.2482 7.2388 14.2482L7.23843 14.2486Z"
			fill="currentColor"
		/>
		<path
			d="M6.56418 18.1077C5.80434 18.1077 5.04487 18.1092 4.28502 18.1073C3.96001 18.1066 3.73777 17.9005 3.73109 17.602C3.72441 17.3032 3.96483 17.0873 4.29578 17.0873C5.80286 17.0866 7.30993 17.0843 8.81663 17.082C9.10009 17.0817 9.28078 17.197 9.34793 17.4234C9.42213 17.6732 9.34051 17.925 9.12458 18.0414C9.03739 18.0885 8.92534 18.1039 8.82405 18.1047C8.07052 18.1096 7.31698 18.1073 6.56344 18.1077H6.56418Z"
			fill="currentColor"
		/>
		<path
			d="M8.91274 9.40641C9.53457 8.87812 10.1408 8.36265 10.7482 7.84793C11.163 7.49637 11.5774 7.14443 11.9952 6.79588C12.2193 6.60898 12.5457 6.64478 12.7301 6.84976C12.9509 7.09544 12.919 7.42553 12.6797 7.63164C11.846 8.34946 11.0023 9.05522 10.1623 9.76551C9.97385 9.9249 9.78872 10.0888 9.59653 10.2429C9.12571 10.6209 8.58699 10.599 8.15958 10.1781C7.63273 9.65962 7.10923 9.13774 6.59128 8.61021C6.31784 8.33175 6.3939 8.05404 6.58127 7.84378C6.78273 7.61732 7.13705 7.64106 7.35892 7.863C7.87315 8.3781 8.39146 8.88905 8.91311 9.40641H8.91274Z"
			fill="currentColor"
		/>
	</symbol>
	<symbol id="settings" viewBox="0 0 24 24" fill="none" xmlns="http://www.w3.org/2000/svg">
		<path
			fill-rule="evenodd"
			clip-rule="evenodd"
			d="M13.5 2L16 5L20 5.5L22 8.5L20 12L22 15.5L20 18.5L16 19L13.5 22H10.5L8 19L4 18.5L2 15.5L4 12L2 8.5L4 5.5L8 5L10.5 2H13.5ZM12.562 3.999H11.437L9.0312 6.88666L5.156 7.37L4.35 8.581L6.3035 12L4.35 15.418L5.156 16.629L9.0312 17.1133L11.436 19.999H12.563L14.9688 17.1133L18.843 16.629L19.649 15.418L17.6965 12L19.649 8.581L18.843 7.37L14.9688 6.88666L12.562 3.999ZM12 8C14.2091 8 16 9.79086 16 12C16 14.2091 14.2091 16 12 16C9.79086 16 8 14.2091 8 12C8 9.79086 9.79086 8 12 8ZM12 10C10.8954 10 10 10.8954 10 12C10 13.1046 10.8954 14 12 14C13.1046 14 14 13.1046 14 12C14 10.8954 13.1046 10 12 10Z"
			fill="currentColor"
		/>
	</symbol>
	<symbol id="integrations" viewBox="0 0 24 24" fill="none" xmlns="http://www.w3.org/2000/svg">
		<path
			fill-rule="evenodd"
			clip-rule="evenodd"
			d="M12 2C17.5228 2 22 6.47715 22 12C22 17.5228 17.5228 22 12 22C6.47715 22 2 17.5228 2 12C2 6.47715 6.47715 2 12 2ZM19.938 13.001L16.9529 13.0001C16.7049 15.6183 15.4929 17.9639 13.6664 19.6959L13.8393 19.7878C17.0549 19.0308 19.5219 16.3344 19.938 13.001ZM7.04714 13.0001L4.06201 13.001C4.4781 16.3344 6.94513 19.0308 10.1604 19.7875L10.3347 19.6967C8.50717 17.9639 7.29516 15.6183 7.04714 13.0001ZM14.9422 13.0012H9.05787C9.31327 15.1963 10.3983 17.1459 11.9996 18.5443C13.6022 17.145 14.6868 15.1958 14.9422 13.0012ZM4.06189 11L7.04706 11.0007C7.29489 8.38213 8.50702 6.03615 10.3338 4.30387L10.1604 4.21252C7.03413 4.94821 4.61525 7.51777 4.10125 10.7237L4.06189 11ZM12.0014 5.45653L11.862 5.57831C10.3359 6.96735 9.30535 8.8681 9.05768 11.0004H14.9424C14.7001 8.91487 13.709 7.05083 12.2377 5.67043L12.0014 5.45653ZM13.8396 4.21252L13.6653 4.30318C15.493 6.03615 16.7051 8.38213 16.953 11.0007L19.9381 11C19.5224 7.66609 17.0552 4.96923 13.8396 4.21252Z"
			fill="currentColor"
		/>
	</symbol>
	<symbol id="reporting" viewBox="0 0 24 24" fill="none" xmlns="http://www.w3.org/2000/svg">
		<path
			fill-rule="evenodd"
			clip-rule="evenodd"
			d="M15 2H15.306L20 6.69398V7V20C20 21.1046 19.1046 22 18 22H6C4.89543 22 4 21.1046 4 20V4C4 2.89543 4.89543 2 6 2H15ZM13 4H6V20H18V9H13V4ZM17.693 7L15 4.306V7H17.693Z"
			fill="currentColor"
		/>
		<path
			d="M10 15C10 14.4477 9.55228 14 9 14C8.44772 14 8 14.4477 8 15L10 15ZM10 19L10 15L8 15L8 19L10 19Z"
			fill="currentColor"
		/>
		<path
			d="M13 13C13 12.4477 12.5523 12 12 12C11.4477 12 11 12.4477 11 13L13 13ZM13 19L13 13L11 13L11 19L13 19Z"
			fill="currentColor"
		/>
		<path
			d="M16 11C16 10.4477 15.5523 10 15 10C14.4477 10 14 10.4477 14 11L16 11ZM16 19L16 11L14 11L14 19L16 19Z"
			fill="currentColor"
		/>
	</symbol>
	<symbol id="jobs" viewBox="0 0 24 24" fill="none" xmlns="http://www.w3.org/2000/svg">
		<path
			d="M5.30257 2.12518C6.01431 1.9504 6.75873 1.95877 7.46636 2.14949C8.174 2.34021 8.82179 2.70708 9.3493 3.21587L9.35063 3.21653C9.8849 3.7345 10.2769 4.38119 10.4891 5.09443C10.7012 5.80768 10.7263 6.56351 10.562 7.28926L16.6787 13.446C17.3969 13.2788 18.1458 13.2973 18.8548 13.4999C19.5638 13.7025 20.2095 14.0825 20.7308 14.604C21.2578 15.1312 21.6403 15.785 21.8415 16.5027C22.0427 17.2205 22.0557 17.9779 21.8795 18.7021L21.8762 18.7134C21.6648 19.5228 20.6428 19.8101 20.0395 19.2068L18.3601 17.5288L17.5301 18.3588L19.2088 20.0361C19.8175 20.6448 19.5175 21.6661 18.7048 21.8735L18.7001 21.8748C17.9884 22.0496 17.2439 22.0412 16.5363 21.8505C15.8287 21.6598 15.1809 21.2929 14.6534 20.7841L14.652 20.7835C14.1235 20.2711 13.734 19.6326 13.5204 18.9281C13.3067 18.2237 13.2758 17.4764 13.4307 16.7567L7.27393 10.5653C6.56233 10.7223 5.82265 10.6974 5.12318 10.4931C4.42372 10.2887 3.78702 9.91137 3.27187 9.39596C2.74486 8.86885 2.36236 8.21498 2.16119 7.49727C1.96001 6.77955 1.94693 6.02214 2.12319 5.2979L2.12652 5.28657C2.33786 4.47722 3.35987 4.18988 3.96322 4.79322L5.64257 6.47125L6.47325 5.64124L4.79389 3.96388C4.18522 3.3552 4.48522 2.33385 5.2979 2.12652L5.30257 2.12518ZM6.06191 3.3452L7.58527 4.86789C7.68743 4.96911 7.76851 5.08957 7.82385 5.22231C7.87919 5.35504 7.90768 5.49743 7.90768 5.64124C7.90768 5.78505 7.87919 5.92743 7.82385 6.06017C7.76851 6.1929 7.68743 6.31336 7.58527 6.41458L6.41592 7.58393C6.31465 7.68601 6.19418 7.76703 6.06145 7.82231C5.92872 7.8776 5.78636 7.90607 5.64257 7.90607C5.49879 7.90607 5.35643 7.8776 5.2237 7.82231C5.09097 7.76703 4.97049 7.68601 4.86923 7.58393L3.34521 6.06124C3.30123 6.55619 3.38062 7.05433 3.57625 7.5111C3.77189 7.96786 4.07768 8.36902 4.46628 8.6787C4.85488 8.98838 5.31418 9.19692 5.80309 9.28567C6.292 9.37443 6.79528 9.34062 7.26793 9.18729C7.38507 9.14935 7.51042 9.14459 7.6301 9.17354C7.74977 9.20249 7.8591 9.26401 7.94594 9.35129L14.6434 16.0874C14.7291 16.1736 14.7896 16.2815 14.8184 16.3996C14.8472 16.5177 14.8432 16.6414 14.8067 16.7574C14.638 17.2897 14.6207 17.8585 14.7568 18.4001C14.8929 18.9417 15.177 19.4348 15.5774 19.8241C15.8884 20.1241 16.2605 20.3536 16.6682 20.4968C17.0759 20.64 17.5098 20.6937 17.9401 20.6541L16.4174 19.1321C16.3152 19.0309 16.2342 18.9104 16.1788 18.7777C16.1235 18.645 16.095 18.5026 16.095 18.3588C16.095 18.215 16.1235 18.0726 16.1788 17.9398C16.2342 17.8071 16.3152 17.6866 16.4174 17.5854L17.5861 16.4167C17.6874 16.3147 17.8078 16.2336 17.9406 16.1784C18.0733 16.1231 18.2157 16.0946 18.3594 16.0946C18.5032 16.0946 18.6456 16.1231 18.7783 16.1784C18.911 16.2336 19.0315 16.3147 19.1328 16.4167L20.6561 17.9388C20.7003 17.4405 20.6196 16.9391 20.4211 16.48C20.2226 16.0208 19.9127 15.6185 19.5195 15.3093C19.1263 15.0002 18.6621 14.794 18.1691 14.7095C17.6761 14.625 17.1698 14.6648 16.6961 14.8254C16.5779 14.8655 16.4508 14.8717 16.3293 14.8432C16.2078 14.8146 16.0967 14.7526 16.0087 14.664L9.34463 7.95527C9.25816 7.86806 9.19746 7.75866 9.16922 7.63914C9.14099 7.51961 9.14632 7.39461 9.18463 7.27793C9.36172 6.74164 9.38436 6.16634 9.24997 5.61779C9.11557 5.06924 8.82956 4.56957 8.42462 4.17588C8.1135 3.87577 7.74133 3.64628 7.33348 3.50304C6.92563 3.35981 6.49169 3.3062 6.06125 3.34587"
			fill="currentColor"
		/>
	</symbol>
	<symbol id="assets" viewBox="0 0 24 24" fill="none" xmlns="http://www.w3.org/2000/svg">
		<path
			fill-rule="evenodd"
			clip-rule="evenodd"
			d="M12 2L18.7022 4.51334C19.4829 4.80607 20 5.55231 20 6.386V14C20 18.4183 12 22 12 22C12 22 4 18.4183 4 14V6.386C4 5.55231 4.51715 4.80607 5.29775 4.51334L12 2ZM12 4.135L6 6.386V14C6 17.3137 12 20 12 20C12 20 17.8776 17.4344 17.9959 14.2249L18 14V6.386L12 4.135ZM15.648 8L17 9.39012L10.544 16L7 12.356L8.35199 10.9659L10.544 13.219L15.648 8Z"
			fill="currentColor"
		/>
	</symbol>
	<symbol id="production" viewBox="0 0 24 24" fill="none" xmlns="http://www.w3.org/2000/svg">
		<path
			fill-rule="evenodd"
			clip-rule="evenodd"
			d="M13.9286 8.73298V12.3368L16.9269 10.3376L19.0714 8.90784V17.733C19.0714 17.9035 19.0037 18.067 18.8831 18.1875C18.7626 18.3081 18.5991 18.3758 18.4286 18.3758H5.57143C5.40093 18.3758 5.23742 18.3081 5.11686 18.1875C4.9963 18.067 4.92857 17.9035 4.92857 17.733V5.51869C4.92857 5.3482 4.9963 5.18468 5.11686 5.06413C5.23742 4.94357 5.40093 4.87584 5.57143 4.87584H7.5C7.6705 4.87584 7.83401 4.94357 7.95457 5.06413C8.07513 5.18468 8.14286 5.3482 8.14286 5.51869V12.5207L11.2054 10.2926L13.9286 8.31255V8.73298ZM10.0714 5.51869V8.73298L12 7.33155L13.161 6.48684C13.4141 6.30252 13.7133 6.19182 14.0255 6.167C14.3376 6.14218 14.6506 6.2042 14.9296 6.34621C15.2087 6.48821 15.4431 6.70466 15.6068 6.9716C15.7705 7.23854 15.8571 7.54556 15.8571 7.85869V8.73298L17.1686 7.85869L17.7639 7.46141L18.3154 7.09498C18.5754 6.92163 18.8776 6.82209 19.1897 6.80697C19.5019 6.79185 19.8122 6.86172 20.0878 7.00912C20.3633 7.15653 20.5937 7.37594 20.7544 7.64398C20.915 7.91202 20.9999 8.21863 21 8.53112V17.733C21 18.415 20.7291 19.069 20.2468 19.5513C19.7646 20.0335 19.1106 20.3044 18.4286 20.3044H5.57143C4.88944 20.3044 4.23539 20.0335 3.75315 19.5513C3.27092 19.069 3 18.415 3 17.733V5.51869C3 4.83671 3.27092 4.18266 3.75315 3.70042C4.23539 3.21818 4.88944 2.94727 5.57143 2.94727H7.5C8.18199 2.94727 8.83604 3.21818 9.31827 3.70042C9.80051 4.18266 10.0714 4.83671 10.0714 5.51869ZM7.82143 14.5187C7.56568 14.5187 7.32041 14.6203 7.13958 14.8011C6.95874 14.982 6.85714 15.2272 6.85714 15.483C6.85714 15.7387 6.95874 15.984 7.13958 16.1648C7.32041 16.3457 7.56568 16.4473 7.82143 16.4473H16.1786C16.4343 16.4473 16.6796 16.3457 16.8604 16.1648C17.0413 15.984 17.1429 15.7387 17.1429 15.483C17.1429 15.2272 17.0413 14.982 16.8604 14.8011C16.6796 14.6203 16.4343 14.5187 16.1786 14.5187H7.82143Z"
			fill="currentColor"
		/>
	</symbol>
	<symbol id="usd" viewBox="0 0 24 24" fill="none" xmlns="http://www.w3.org/2000/svg">
		<path
			fill-rule="evenodd"
			clip-rule="evenodd"
			d="M12 3C12.5523 3 13 3.44772 13 4L13.0008 4.0903C15.1936 4.49143 16.8893 6.1853 16.9948 8.2915L17 8.5H15C15 7.43378 14.1779 6.49103 13.0014 6.14282L13.0008 11.0903C15.2655 11.5046 17 13.2978 17 15.5C17 17.7022 15.2655 19.4954 13.0008 19.9097L13 20C13 20.5523 12.5523 21 12 21C11.4477 21 11 20.5523 11 20L11.0002 19.9099C8.80687 19.5091 7.11069 17.815 7.00521 15.7085L7 15.5H9C9 16.5665 9.82259 17.5095 10.9996 17.8575L11.0002 12.9099C8.73496 12.4959 7 10.7025 7 8.5C7 6.29746 8.73496 4.50405 11.0002 4.09012L11 4C11 3.44772 11.4477 3 12 3ZM13.0012 13.1428L13.0014 17.8572C14.1779 17.509 15 16.5662 15 15.5C15 14.4337 14.1778 13.491 13.0012 13.1428ZM9 8.5C9 9.56657 9.82266 10.5096 10.9998 10.8575L10.9996 6.14252C9.82259 6.4905 9 7.43347 9 8.5Z"
			fill="currentColor"
		/>
	</symbol>

	<!-- Other icons -->
	<symbol id="arrowDown" viewBox="0 0 24 24" fill="none" xmlns="http://www.w3.org/2000/svg">
		<path
			fill-rule="evenodd"
			clip-rule="evenodd"
			d="M17.7071 8.29289C18.0676 8.65338 18.0953 9.22061 17.7903 9.6129L17.7071 9.70711L12.7071 14.7071C12.3466 15.0676 11.7794 15.0953 11.3871 14.7903L11.2929 14.7071L6.29289 9.70711C5.90237 9.31658 5.90237 8.68342 6.29289 8.29289C6.65338 7.93241 7.22061 7.90468 7.6129 8.20971L7.70711 8.29289L12 12.585L16.2929 8.29289C16.6534 7.93241 17.2206 7.90468 17.6129 8.2097L17.7071 8.29289Z"
			fill="currentColor"
		/>
	</symbol>
	<symbol id="help" viewBox="0 0 24 24" fill="none" xmlns="http://www.w3.org/2000/svg">
		<mask
			id="mask0_399_14332"
			style="mask-type: alpha"
			maskUnits="userSpaceOnUse"
			x="0"
			y="0"
			width="24"
			height="24"
		>
			<rect width="24" height="24" fill="#D9D9D9" />
		</mask>
		<g mask="url(#mask0_399_14332)">
			<path
				d="M11.989 17.6153C12.2745 17.6153 12.5157 17.5168 12.7125 17.3196C12.9093 17.1225 13.0077 16.8811 13.0077 16.5956C13.0077 16.31 12.9091 16.0689 12.7119 15.8721C12.5148 15.6753 12.2734 15.5769 11.9879 15.5769C11.7024 15.5769 11.4612 15.6755 11.2644 15.8726C11.0676 16.0698 10.9692 16.3111 10.9692 16.5967C10.9692 16.8822 11.0678 17.1234 11.265 17.3202C11.4621 17.5169 11.7034 17.6153 11.989 17.6153ZM12.0016 21.5C10.6877 21.5 9.45268 21.2506 8.29655 20.752C7.1404 20.2533 6.13472 19.5765 5.2795 18.7217C4.42427 17.8669 3.74721 16.8616 3.24833 15.706C2.74944 14.5504 2.5 13.3156 2.5 12.0017C2.5 10.6877 2.74933 9.45268 3.248 8.29655C3.74667 7.1404 4.42342 6.13472 5.27825 5.2795C6.1331 4.42427 7.13834 3.74721 8.29398 3.24833C9.44959 2.74944 10.6844 2.5 11.9983 2.5C13.3122 2.5 14.5473 2.74933 15.7034 3.248C16.8596 3.74667 17.8652 4.42342 18.7205 5.27825C19.5757 6.1331 20.2527 7.13834 20.7516 8.29398C21.2505 9.44959 21.5 10.6844 21.5 11.9983C21.5 13.3122 21.2506 14.5473 20.752 15.7034C20.2533 16.8596 19.5765 17.8652 18.7217 18.7205C17.8669 19.5757 16.8616 20.2527 15.706 20.7516C14.5504 21.2505 13.3156 21.5 12.0016 21.5ZM12 20C14.2333 20 16.125 19.225 17.675 17.675C19.225 16.125 20 14.2333 20 12C20 9.76664 19.225 7.87498 17.675 6.32498C16.125 4.77498 14.2333 3.99998 12 3.99998C9.76664 3.99998 7.87498 4.77498 6.32498 6.32498C4.77498 7.87498 3.99998 9.76664 3.99998 12C3.99998 14.2333 4.77498 16.125 6.32498 17.675C7.87498 19.225 9.76664 20 12 20ZM12.081 7.7192C12.5424 7.7192 12.9416 7.86444 13.2788 8.15493C13.616 8.44541 13.7846 8.80851 13.7846 9.24423C13.7846 9.61089 13.6769 9.93909 13.4615 10.2288C13.2461 10.5186 13 10.7885 12.7231 11.0385C12.3601 11.3605 12.0405 11.7147 11.7643 12.1011C11.4881 12.4875 11.3404 12.9179 11.3211 13.3923C11.3147 13.5743 11.3788 13.7269 11.5135 13.85C11.6481 13.973 11.8051 14.0346 11.9846 14.0346C12.1769 14.0346 12.3397 13.9705 12.4731 13.8423C12.6064 13.7141 12.6916 13.557 12.7288 13.3711C12.7955 13.0275 12.9375 12.7215 13.1548 12.4529C13.3721 12.1843 13.6075 11.9289 13.861 11.6867C14.2254 11.3314 14.5435 10.9441 14.8153 10.5247C15.0871 10.1052 15.223 9.63738 15.223 9.12115C15.223 8.32885 14.9109 7.67789 14.2865 7.16828C13.6622 6.65866 12.9333 6.40385 12.1 6.40385C11.5051 6.40385 10.9442 6.53558 10.4173 6.79905C9.89038 7.0625 9.48013 7.44679 9.18653 7.95193C9.09551 8.10704 9.06629 8.27032 9.09888 8.44175C9.13146 8.61317 9.21943 8.74333 9.3628 8.83223C9.54528 8.93381 9.73268 8.9628 9.92498 8.9192C10.1173 8.87562 10.2807 8.76601 10.4154 8.59038C10.6179 8.32754 10.8631 8.11664 11.1509 7.95768C11.4387 7.79869 11.7488 7.7192 12.081 7.7192Z"
				fill="#1C1B1F"
			/>
		</g>
	</symbol>
	<symbol id="plus" viewBox="0 0 18 18" fill="none" xmlns="http://www.w3.org/2000/svg">
		<path
			fill-rule="evenodd"
			clip-rule="evenodd"
			d="M9 3.75C9.41421 3.75 9.75 4.08579 9.75 4.5V8.24925L13.5 8.25C13.9142 8.25 14.25 8.58579 14.25 9C14.25 9.41421 13.9142 9.75 13.5 9.75L9.75 9.74925V13.5C9.75 13.9142 9.41421 14.25 9 14.25C8.58579 14.25 8.25 13.9142 8.25 13.5V9.74925L4.5 9.75C4.08579 9.75 3.75 9.41421 3.75 9C3.75 8.58579 4.08579 8.25 4.5 8.25L8.25 8.24925V4.5C8.25 4.08579 8.58579 3.75 9 3.75Z"
			fill="currentColor"
		/>
	</symbol>
	<symbol id="reset" viewBox="0 0 24 24" fill="none" xmlns="http://www.w3.org/2000/svg">
		<path
			fill-rule="evenodd"
			clip-rule="evenodd"
			d="M21 12C21 16.4183 17.4183 20 13 20C8.58172 20 5 16.4183 5 12C5 10.9698 5.19531 9.96528 5.57046 9.02818L3 8L9 5L10.5 11L7.42741 9.77096C7.14633 10.4729 7 11.2254 7 12C7 15.3137 9.68629 18 13 18C16.3137 18 19 15.3137 19 12C19 8.68629 16.3137 6 13 6C12.4477 6 12 5.55228 12 5C12 4.44771 12.4477 4 13 4C17.4183 4 21 7.58172 21 12Z"
			fill="currentColor"
		/>
	</symbol>
	<symbol id="search" viewBox="0 0 24 24" fill="none" xmlns="http://www.w3.org/2000/svg">
		<path
			fill-rule="evenodd"
			clip-rule="evenodd"
			d="M10.5 3C14.6421 3 18 6.35786 18 10.5C18 12.2101 17.4276 13.7866 16.464 15.0483L19.7071 18.2929C20.0976 18.6834 20.0976 19.3166 19.7071 19.7071C19.3466 20.0676 18.7794 20.0953 18.3871 19.7903L18.2929 19.7071L15.0483 16.464C13.7866 17.4276 12.2101 18 10.5 18C6.35786 18 3 14.6421 3 10.5C3 6.35786 6.35786 3 10.5 3ZM10.5 5C7.46243 5 5 7.46243 5 10.5C5 13.5376 7.46243 16 10.5 16C11.8511 16 13.0885 15.5128 14.0459 14.7045C14.091 14.5536 14.1738 14.412 14.2929 14.2929C14.412 14.1738 14.5536 14.091 14.7041 14.0446C15.5128 13.0885 16 11.8511 16 10.5C16 7.46243 13.5376 5 10.5 5Z"
			fill="#7E84A3"
		/>
	</symbol>
	<symbol id="prev" viewBox="0 0 24 24" fill="none" xmlns="http://www.w3.org/2000/svg">
		<path
			fill-rule="evenodd"
			clip-rule="evenodd"
			d="M9.3871 6.2097L9.29289 6.29289L4.29289 11.2929C3.93241 11.6534 3.90468 12.2206 4.2097 12.6129L4.29289 12.7071L9.29289 17.7071C9.68342 18.0976 10.3166 18.0976 10.7071 17.7071C11.0676 17.3466 11.0953 16.7794 10.7903 16.3871L10.7071 16.2929L7.414 12.999L18 13C18.5523 13 19 12.5523 19 12C19 11.4477 18.5523 11 18 11L7.416 10.999L10.7071 7.70711C11.0676 7.34662 11.0953 6.77939 10.7903 6.3871L10.7071 6.29289C10.3466 5.93241 9.77939 5.90468 9.3871 6.2097Z"
			fill="currentColor"
		/>
	</symbol>
	<symbol id="edit" viewBox="0 0 20 20" fill="none" xmlns="http://www.w3.org/2000/svg">
		<path
			fill-rule="evenodd"
			clip-rule="evenodd"
			d="M15.8335 15.8333C16.2937 15.8333 16.6668 16.2064 16.6668 16.6667C16.6668 17.1269 16.2937 17.5 15.8335 17.5H4.16683C3.70659 17.5 3.3335 17.1269 3.3335 16.6667C3.3335 16.2064 3.70659 15.8333 4.16683 15.8333H15.8335ZM15.0026 2.98743L16.1794 4.16419C16.8293 4.8141 16.8293 5.86781 16.1794 6.51772L9.31496 13.3822C9.18765 13.5095 9.02248 13.5921 8.84425 13.6175L5.00016 14.1667L5.54932 10.3226C5.57478 10.1443 5.65736 9.97918 5.78467 9.85187L12.6491 2.98743C13.299 2.33752 14.3527 2.33752 15.0026 2.98743ZM13.8259 4.16423L7.15776 10.8323L6.96183 12.205L8.33453 12.0091L15.0026 5.34099L13.8259 4.16423Z"
			fill="currentColor"
		/>
	</symbol>
	<symbol id="delete" viewBox="0 0 20 20" fill="none" xmlns="http://www.w3.org/2000/svg">
		<path
			fill-rule="evenodd"
			clip-rule="evenodd"
			d="M15 6.66667V15.8333C15 16.7538 14.2538 17.5 13.3333 17.5H6.66667C5.74619 17.5 5 16.7538 5 15.8333V6.66667H15ZM13.3333 8.33333H6.66667V15.8333H13.3333V8.33333ZM9.99984 2.5C10.4601 2.5 10.8332 2.8731 10.8332 3.33333V4.16667H14.9998C15.4601 4.16667 15.8332 4.53976 15.8332 5C15.8332 5.46024 15.4601 5.83333 14.9998 5.83333H4.99984C4.5396 5.83333 4.1665 5.46024 4.1665 5C4.1665 4.53976 4.5396 4.16667 4.99984 4.16667H9.1665V3.33333C9.1665 2.8731 9.5396 2.5 9.99984 2.5Z"
			fill="currentColor"
		/>
	</symbol>
	<symbol id="cancel" viewBox="0 0 18 18" fill="none" xmlns="http://www.w3.org/2000/svg">
		<path
			fill-rule="evenodd"
			clip-rule="evenodd"
			d="M13.2705 4.72951C13.5765 5.03553 13.5765 5.53169 13.2705 5.83771L10.1087 8.99945L13.2705 12.1623C13.5765 12.4683 13.5765 12.9645 13.2705 13.2705C12.9645 13.5765 12.4683 13.5765 12.1623 13.2705L9.00055 10.1076L5.83771 13.2705C5.53169 13.5765 5.03553 13.5765 4.72951 13.2705C4.4235 12.9645 4.4235 12.4683 4.72951 12.1623L7.89236 8.99945L4.72951 5.83771C4.4235 5.53169 4.4235 5.03553 4.72951 4.72951C5.03553 4.4235 5.53169 4.4235 5.83771 4.72951L9.00055 7.89125L12.1623 4.72951C12.4683 4.4235 12.9645 4.4235 13.2705 4.72951Z"
			fill="currentColor"
		/>
	</symbol>
	<symbol id="save" viewBox="0 0 18 18" fill="none" xmlns="http://www.w3.org/2000/svg">
		<path
			fill-rule="evenodd"
			clip-rule="evenodd"
			d="M3.75 15.75C2.92157 15.75 2.25 15.0784 2.25 14.25V3.75C2.25 2.92157 2.92157 2.25 3.75 2.25H12.75L15.75 5.25V14.25C15.75 15.0784 15.0784 15.75 14.25 15.75H3.75ZM12.1282 3.75H3.75V14.25H5.25V9.75C5.25 8.92157 5.92157 8.25 6.75 8.25H11.25C12.0784 8.25 12.75 8.92157 12.75 9.75V14.25H14.25V5.87175L12.1282 3.75ZM11.25 9.75H6.75V14.25H11.25V9.75Z"
			fill="currentColor"
		/>
	</symbol>
	<symbol id="export" viewBox="0 0 18 18" fill="none" xmlns="http://www.w3.org/2000/svg">
		<path
			fill-rule="evenodd"
			clip-rule="evenodd"
			d="M14.25 10.5C14.6346 10.5 14.9516 10.7895 14.995 11.1625L15 11.25V14.25C15 14.6346 14.7105 14.9516 14.3375 14.995L14.25 15H3.75C3.36537 15 3.04837 14.7105 3.00505 14.3375L3 14.25V11.25C3 10.8358 3.33579 10.5 3.75 10.5C4.13463 10.5 4.45163 10.7895 4.49495 11.1625L4.5 11.25V13.5H13.5V11.25C13.5 10.8654 13.7895 10.5484 14.1625 10.505L14.25 10.5ZM9 2.25C9.41421 2.25 9.75 2.58579 9.75 3L9.75075 9.438L12.2197 6.96967C12.49 6.69931 12.9155 6.67851 13.2097 6.90728L13.2803 6.96967C13.5507 7.24003 13.5715 7.66546 13.3427 7.95967L13.2803 8.03033L9.53033 11.7803C9.25997 12.0507 8.83454 12.0715 8.54033 11.8427L8.46967 11.7803L4.71967 8.03033C4.42678 7.73744 4.42678 7.26256 4.71967 6.96967C4.99003 6.69931 5.41546 6.67851 5.70967 6.90728L5.78033 6.96967L8.25075 9.4395L8.25 3C8.25 2.58579 8.58579 2.25 9 2.25Z"
			fill="currentColor"
		/>
	</symbol>
	<symbol id="import" viewBox="0 0 18 18" fill="none" xmlns="http://www.w3.org/2000/svg">
		<path
			fill-rule="evenodd"
			clip-rule="evenodd"
			d="M14.25 10.5C14.6346 10.5 14.9516 10.7895 14.995 11.1625L15 11.25V14.25C15 14.6346 14.7105 14.9516 14.3375 14.995L14.25 15H3.75C3.36537 15 3.04837 14.7105 3.00505 14.3375L3 14.25V11.25C3 10.8358 3.33579 10.5 3.75 10.5C4.13463 10.5 4.45163 10.7895 4.49495 11.1625L4.5 11.25V13.5H13.5V11.25C13.5 10.8654 13.7895 10.5484 14.1625 10.505L14.25 10.5ZM9 12C9.41421 12 9.75 11.6642 9.75 11.25L9.75075 4.812L12.2197 7.28033C12.49 7.55069 12.9155 7.57149 13.2097 7.34272L13.2803 7.28033C13.5507 7.00997 13.5715 6.58454 13.3427 6.29033L13.2803 6.21967L9.53033 2.46967C9.25997 2.19931 8.83454 2.17851 8.54033 2.40728L8.46967 2.46967L4.71967 6.21967C4.42678 6.51256 4.42678 6.98744 4.71967 7.28033C4.99003 7.55069 5.41546 7.57149 5.70967 7.34272L5.78033 7.28033L8.25075 4.8105L8.25 11.25C8.25 11.6642 8.58579 12 9 12Z"
			fill="currentColor"
		/>
	</symbol>
	<symbol id="sort" viewBox="0 0 24 24" fill="none" xmlns="http://www.w3.org/2000/svg">
		<path
			fill-rule="evenodd"
			clip-rule="evenodd"
			d="M7.43059 6.23839L4.23473 9.4881L4.16753 9.56528C4.04824 9.72169 3.98924 9.91693 4.00162 10.1144C4.01399 10.3118 4.09688 10.4979 4.23473 10.6377L4.31073 10.7051C4.46474 10.8263 4.65699 10.8862 4.8514 10.8736C5.04582 10.8611 5.22903 10.7769 5.36668 10.6369L7.2002 8.77072V18.1868L7.2058 18.2818C7.22855 18.4796 7.32201 18.662 7.46845 18.7944C7.61489 18.9268 7.80411 19 8.00017 19L8.09377 18.9943C8.2885 18.971 8.46802 18.8759 8.59824 18.727C8.72846 18.5781 8.80031 18.3859 8.80014 18.1868V8.77641L10.6345 10.6369L10.7105 10.7051C10.8713 10.8329 11.0741 10.8934 11.2774 10.8743C11.4808 10.8551 11.6692 10.7577 11.8041 10.602C11.9389 10.4463 12.0101 10.2441 12.003 10.0369C11.9958 9.82964 11.9109 9.63301 11.7656 9.48728L8.56095 6.23757L8.48575 6.17014C8.33174 6.04899 8.13949 5.98908 7.94507 6.00164C7.75066 6.01421 7.56824 6.09839 7.43059 6.23839ZM15.9998 6.00278L15.9062 6.00847C15.7116 6.03175 15.5322 6.12675 15.402 6.27546C15.2718 6.42416 15.1999 6.61622 15.1999 6.81521V16.2231L13.3655 14.3627L13.2895 14.2944C13.1287 14.1681 12.9265 14.1087 12.7241 14.1284C12.5217 14.148 12.3342 14.2453 12.1998 14.4002C12.0654 14.5552 11.9942 14.7564 12.0007 14.9628C12.0071 15.1692 12.0906 15.3654 12.2344 15.5114L15.4375 18.7611L15.5127 18.8294C15.6667 18.9505 15.8589 19.0105 16.0533 18.9979C16.2477 18.9853 16.431 18.9011 16.5686 18.7611L19.7653 15.5114L19.8325 15.4343C19.9518 15.2778 20.0108 15.0826 19.9984 14.8852C19.986 14.6877 19.9031 14.5016 19.7653 14.3618L19.6893 14.2944C19.5353 14.1733 19.343 14.1134 19.1486 14.1259C18.9542 14.1385 18.771 14.2227 18.6333 14.3627L16.7998 16.2264V6.81521L16.7942 6.72097C16.7715 6.5232 16.678 6.3408 16.5315 6.2084C16.3851 6.076 16.1959 6.00283 15.9998 6.00278Z"
			fill="currentColor"
		/>
	</symbol>
	<symbol id="down" viewBox="0 0 24 24" fill="none" xmlns="http://www.w3.org/2000/svg">
		<path
			fill-rule="evenodd"
			clip-rule="evenodd"
			d="M15.9998 6.00278L15.9062 6.00847C15.7116 6.03175 15.5322 6.12675 15.402 6.27546C15.2718 6.42416 15.1999 6.61622 15.1999 6.81521V16.2231L13.3655 14.3627L13.2895 14.2944C13.1287 14.1681 12.9265 14.1087 12.7241 14.1284C12.5217 14.148 12.3342 14.2453 12.1998 14.4002C12.0654 14.5552 11.9942 14.7564 12.0007 14.9628C12.0071 15.1692 12.0906 15.3654 12.2344 15.5114L15.4375 18.7611L15.5127 18.8294C15.6667 18.9505 15.8589 19.0105 16.0533 18.9979C16.2477 18.9853 16.431 18.9011 16.5686 18.7611L19.7653 15.5114L19.8325 15.4343C19.9518 15.2778 20.0108 15.0826 19.9984 14.8852C19.986 14.6877 19.9031 14.5016 19.7653 14.3618L19.6893 14.2944C19.5353 14.1733 19.343 14.1134 19.1486 14.1259C18.9542 14.1385 18.771 14.2227 18.6333 14.3627L16.7998 16.2264V6.81521L16.7942 6.72097C16.7715 6.5232 16.678 6.3408 16.5315 6.2084C16.3851 6.076 16.1959 6.00283 15.9998 6.00278Z"
			fill="currentColor"
		/>
	</symbol>
	<symbol id="up" viewBox="0 0 24 24" fill="none" xmlns="http://www.w3.org/2000/svg">
		<path
			fill-rule="evenodd"
			clip-rule="evenodd"
			d="M7.43059 6.23839L4.23473 9.4881L4.16753 9.56528C4.04824 9.72169 3.98924 9.91693 4.00162 10.1144C4.01399 10.3118 4.09688 10.4979 4.23473 10.6377L4.31073 10.7051C4.46474 10.8263 4.65699 10.8862 4.8514 10.8736C5.04582 10.8611 5.22903 10.7769 5.36668 10.6369L7.2002 8.77072V18.1868L7.2058 18.2818C7.22855 18.4796 7.32201 18.662 7.46845 18.7944C7.61489 18.9268 7.80411 19 8.00017 19L8.09377 18.9943C8.2885 18.971 8.46802 18.8759 8.59824 18.727C8.72846 18.5781 8.80031 18.3859 8.80014 18.1868V8.77641L10.6345 10.6369L10.7105 10.7051C10.8713 10.8329 11.0741 10.8934 11.2774 10.8743C11.4808 10.8551 11.6692 10.7577 11.8041 10.602C11.9389 10.4463 12.0101 10.2441 12.003 10.0369C11.9958 9.82964 11.9109 9.63301 11.7656 9.48728L8.56095 6.23757L8.48575 6.17014C8.33174 6.04899 8.13949 5.98908 7.94507 6.00164C7.75066 6.01421 7.56824 6.09839 7.43059 6.23839Z"
			fill="currentColor"
		/>
	</symbol>
	<symbol id="spinner" viewBox="0 0 800 800" xmlns="http://www.w3.org/2000/svg">
		<circle
			r="350"
			cx="400"
			cy="400"
			fill="none"
			stroke-width="70"
			stroke="currentColor"
			stroke-linecap="round"
			stroke-dasharray="1750 2200"
		/>
	</symbol>
	<symbol id="eyeOpen" viewBox="0 0 24 24" fill="none" xmlns="http://www.w3.org/2000/svg">
		<path
			fill-rule="evenodd"
			clip-rule="evenodd"
			d="M12 6C14.5773 6 17.9107 8 22 12C17.9107 16 14.5773 18 12 18C9.42267 18 6.08934 16 2 12C6.08934 8 9.42267 6 12 6ZM12 8C10.4165 8 8.12903 9.20868 5.26355 11.7028L4.926 12L4.95433 12.025C7.86439 14.6142 10.1996 15.912 11.8335 15.9957L12 16C13.5835 16 15.871 14.7913 18.7364 12.2972L19.073 12L19.0457 11.975C16.1356 9.38584 13.8004 8.08797 12.1665 8.00432L12 8ZM12 10C13.1046 10 14 10.8954 14 12C14 13.1046 13.1046 14 12 14C10.8954 14 10 13.1046 10 12C10 10.8954 10.8954 10 12 10Z"
			fill="currentColor"
		/>
	</symbol>
	<symbol id="eyeClose" viewBox="0 0 24 24" fill="none" xmlns="http://www.w3.org/2000/svg">
		<path
			fill-rule="evenodd"
			clip-rule="evenodd"
			d="M19.7071 4.29289C19.3166 3.90237 18.6834 3.90237 18.2929 4.29289L15.5684 7.01736C14.2508 6.33912 13.0613 6 12 6C9.42267 6 6.08934 8 2 12C3.68265 13.6459 5.23731 14.9532 6.66397 15.9218L4.29289 18.2929L4.2097 18.3871C3.90468 18.7794 3.93241 19.3466 4.29289 19.7071C4.68342 20.0976 5.31658 20.0976 5.70711 19.7071L8.43158 16.9826C9.74924 17.6609 10.9387 18 12 18C14.5773 18 17.9107 16 22 12C20.3173 10.3541 18.7627 9.04683 17.336 8.07818L19.7071 5.70711L19.7903 5.6129C20.0953 5.22061 20.0676 4.65338 19.7071 4.29289ZM14.0718 8.51398C13.3589 8.20164 12.7222 8.03277 12.1665 8.00432L12 8C10.4165 8 8.12903 9.20868 5.26355 11.7028L4.926 12L4.95433 12.025C6.09571 13.0405 7.14865 13.8574 8.10553 14.4803L10.0677 12.518C10.0236 12.3528 10 12.1792 10 12C10 10.8954 10.8954 10 12 10C12.1792 10 12.3528 10.0236 12.518 10.0677L14.0718 8.51398ZM13.9323 11.482L15.8945 9.51974C16.8514 10.1426 17.9043 10.9595 19.0457 11.975L19.073 12L18.7364 12.2972C15.871 14.7913 13.5835 16 12 16L11.8335 15.9957C11.2778 15.9672 10.6411 15.7984 9.92819 15.486L11.482 13.9323C11.6472 13.9764 11.8208 14 12 14C13.1046 14 14 13.1046 14 12C14 11.8208 13.9764 11.6472 13.9323 11.482Z"
			fill="currentColor"
		/>
	</symbol>
	<symbol id="arrowInCircel" viewBox="0 0 24 24" fill="none" xmlns="http://www.w3.org/2000/svg">
		<path
			fill-rule="evenodd"
			clip-rule="evenodd"
			d="M12 2C17.5228 2 22 6.47716 22 12C22 17.5229 17.5228 22 12 22C6.47715 22 2 17.5228 2 12C2 6.47715 6.47715 2 12 2ZM12 4C7.58172 4 4 7.58172 4 12C4 16.4183 7.58172 20 12 20C16.4183 20 20 16.4183 20 12C20 7.58172 16.4183 4 12 4Z"
			fill="#7E84A3"
		/>
		<path
			d="M8.09598 10.0828L8.09578 10.0826L8.0892 10.0892C7.79472 10.3837 7.77219 10.8468 8.02139 11.1673L8.02116 11.1675L8.02737 11.1746L8.08282 11.2374L8.08261 11.2375L8.0892 11.2441L11.4225 14.5775C11.717 14.8719 12.1802 14.8945 12.5007 14.6453L12.5009 14.6455L12.5079 14.6393L12.5707 14.5838L12.5709 14.5841L12.5775 14.5775L15.9108 11.2441C16.2297 10.9252 16.2297 10.4081 15.9108 10.0892C15.6163 9.79472 15.1532 9.77219 14.8327 10.0214L14.8325 10.0212L14.8254 10.0274L14.7626 10.0828L14.7625 10.0826L14.7559 10.0892L12 12.8446L9.24414 10.0892C9.24413 10.0892 9.24413 10.0892 9.24413 10.0892C8.94965 9.79472 8.48648 9.77219 8.16599 10.0214L8.16581 10.0212L8.15878 10.0274L8.09598 10.0828Z"
			fill="#7E84A3"
			stroke="#7E84A3"
			stroke-width="0.3"
		/>
	</symbol>
	<symbol id="mapPoint" viewBox="0 0 18 18" fill="none" xmlns="http://www.w3.org/2000/svg">
		<path
			fill-rule="evenodd"
			clip-rule="evenodd"
			d="M9 1.5C11.8995 1.5 14.25 3.89402 14.25 6.8472C14.25 8.57311 12.9051 11.3299 10.2154 15.1175C10.1219 15.2492 10.0084 15.3648 9.87909 15.46C9.24141 15.9298 8.36322 15.8149 7.86074 15.216L7.78462 15.1175L7.56947 14.8126C5.02316 11.1816 3.75 8.52647 3.75 6.8472C3.75 3.89402 6.10051 1.5 9 1.5ZM9 3.02783C6.92893 3.02783 5.25 4.73785 5.25 6.84726C5.25 8.07059 6.35183 10.4034 8.58724 13.6336L8.78743 13.921L8.99925 14.2211L9.20086 13.9376L9.59685 13.3656C11.6458 10.3651 12.6877 8.17195 12.7473 6.95535L12.75 6.84726C12.75 4.73785 11.0711 3.02783 9 3.02783ZM9 5.25C9.82843 5.25 10.5 5.92157 10.5 6.75C10.5 7.57843 9.82843 8.25 9 8.25C8.17157 8.25 7.5 7.57843 7.5 6.75C7.5 5.92157 8.17157 5.25 9 5.25Z"
			fill="currentColor"
		/>
	</symbol>
	<symbol id="attachments" viewBox="0 0 18 18" fill="none" xmlns="http://www.w3.org/2000/svg">
		<path
			fill-rule="evenodd"
			clip-rule="evenodd"
			d="M12.375 4.5C14.6532 4.5 16.5 6.34683 16.5 8.625C16.5 10.8476 14.7422 12.6597 12.5409 12.7467L12.375 12.75H3.75C3.33579 12.75 3 12.4142 3 12C3 11.6154 3.28953 11.2984 3.66253 11.255L3.75 11.25H12.375C13.8247 11.25 15 10.0747 15 8.625C15 7.22358 13.9018 6.07866 12.519 6.00388L12.375 6H4.5C3.67157 6 3 6.67157 3 7.5C3 8.29077 3.61191 8.93862 4.38805 8.99589L4.5 9H11.625C11.8321 9 12 8.83211 12 8.625C12 8.44091 11.8673 8.28779 11.6924 8.25604L11.625 8.25H6C5.58579 8.25 5.25 7.91421 5.25 7.5C5.25 7.11537 5.53953 6.79837 5.91253 6.75505L6 6.75H11.625C12.6605 6.75 13.5 7.58947 13.5 8.625C13.5 9.61911 12.7263 10.4325 11.7483 10.496L11.625 10.5H4.5C2.84315 10.5 1.5 9.15685 1.5 7.5C1.5 5.89335 2.76298 4.58169 4.35027 4.50367L4.5 4.5H12.375Z"
			fill="currentColor"
		/>
	</symbol>
	<symbol id="emptyFile" viewBox="0 0 18 18" fill="none" xmlns="http://www.w3.org/2000/svg">
		<path
			fill-rule="evenodd"
			clip-rule="evenodd"
			d="M11.25 1.5H11.4795L15 5.02049V5.25V15C15 15.8284 14.3284 16.5 13.5 16.5H4.5C3.67157 16.5 3 15.8284 3 15V3C3 2.17157 3.67157 1.5 4.5 1.5H11.25ZM9.75 3H4.5V15H13.5V6.75H9.75V3ZM13.2697 5.25048L11.25 3.22998V5.25048H13.2697Z"
			fill="currentColor"
		/>
	</symbol>
	<symbol id="plusFile" viewBox="0 0 24 24" fill="none" xmlns="http://www.w3.org/2000/svg">
		<path
			fill-rule="evenodd"
			clip-rule="evenodd"
			d="M15.306 2H15H6C4.89543 2 4 2.89543 4 4V20C4 21.1046 4.89543 22 6 22H18C19.1046 22 20 21.1046 20 20V7V6.69398L15.306 2ZM6 4H13V9H18V20H6V4ZM17.693 7L15 4.306V7H17.693ZM13 11C13 10.4477 12.5523 10 12 10C11.4477 10 11 10.4477 11 11V12.999L9 13C8.44772 13 8 13.4477 8 14C8 14.5523 8.44772 15 9 15L11 14.999V17C11 17.5523 11.4477 18 12 18C12.5523 18 13 17.5523 13 17V14.999L15 15C15.5523 15 16 14.5523 16 14C16 13.4477 15.5523 13 15 13L13 12.999V11Z"
			fill="currentColor"
		/>
	</symbol>
	<symbol id="salesHistory" viewBox="0 0 14 14" fill="none" xmlns="http://www.w3.org/2000/svg">
		<path
			d="M14 6.98678C14.0071 10.8436 10.8618 13.9973 7.00507 14C5.33933 14.0012 3.80927 13.4205 2.60688 12.4501C2.29422 12.1978 2.27085 11.7292 2.55497 11.4451L2.87299 11.127C3.11599 10.884 3.50392 10.8574 3.77314 11.071C4.659 11.774 5.7801 12.1936 6.99999 12.1936C9.8707 12.1936 12.1935 9.87027 12.1935 7.00001C12.1935 4.1293 9.87025 1.80646 6.99999 1.80646C5.62218 1.80646 4.37079 2.34187 3.44163 3.21583L4.8742 4.6484C5.15871 4.93292 4.95721 5.41937 4.55488 5.41937H0.451613C0.202181 5.41937 0 5.21718 0 4.96775V0.864473C0 0.462142 0.486443 0.260638 0.770959 0.545126L2.16452 1.93869C3.42122 0.737711 5.12445 0 6.99999 0C10.8616 0 13.9928 3.12686 14 6.98678ZM8.89361 9.21052L9.17087 8.85403C9.40057 8.5587 9.34736 8.13308 9.05204 7.90341L7.90322 7.00986V4.06452C7.90322 3.69039 7.59993 3.3871 7.2258 3.3871H6.77419C6.40006 3.3871 6.09677 3.69039 6.09677 4.06452V7.89339L7.94299 9.32935C8.23832 9.55903 8.6639 9.50585 8.89361 9.21052Z"
			fill="currentColor"
		/>
	</symbol>
	<symbol id="list" viewBox="0 0 24 24" fill="none" xmlns="http://www.w3.org/2000/svg">
		<path
			fill-rule="evenodd"
			clip-rule="evenodd"
			d="M6 15V17H4V15H6ZM19 15C19.5523 15 20 15.4477 20 16C20 16.5523 19.5523 17 19 17H9C8.44772 17 8 16.5523 8 16C8 15.4477 8.44772 15 9 15H19ZM6 11V13H4V11H6ZM19 11C19.5523 11 20 11.4477 20 12C20 12.5523 19.5523 13 19 13H9C8.44772 13 8 12.5523 8 12C8 11.4477 8.44772 11 9 11H19ZM6 7V9H4V7H6ZM19 7C19.5523 7 20 7.44772 20 8C20 8.55228 19.5523 9 19 9H9C8.44772 9 8 8.55228 8 8C8 7.44772 8.44772 7 9 7H19Z"
			fill="currentColor"
		/>
	</symbol>
	<symbol id="car" viewBox="0 0 24 24" fill="none" xmlns="http://www.w3.org/2000/svg">
		<path
			fill-rule="evenodd"
			clip-rule="evenodd"
			d="M13 4C14.1046 4 15 4.89543 15 6V7H19.618L22 11.7639V17H20C20 18.6569 18.6569 20 17 20C15.3431 20 14 18.6569 14 17H10C10 18.6569 8.65685 20 7 20C5.34315 20 4 18.6569 4 17H2V6C2 4.89543 2.89543 4 4 4H13ZM7 16C6.72386 16 6 16 6 16C6 16 6 16.7239 6 17C6 17.2761 6 18 6 18C6 18 6.72386 18 7 18C7.27614 18 8 18 8 18C8 18 8 17.2761 8 17C8 16.7239 8 16 8 16C8 16 7.27614 16 7 16ZM17 16C16.7449 16 16 16 16 16V17C16 17.2761 16 18 16 18C16 18 16.7239 18 17 18C17.2761 18 18 18 18 18C18 18 18 17.2761 18 17C18 16.7239 18 16 18 16C18 16 17.2761 16 17 16ZM13 6H4V15L4.76381 15.0001C5.31313 14.3863 6.11145 14 7 14C7.88855 14 8.68687 14.3863 9.23619 15.0001L13 15V6ZM18.381 9H15L15.0001 14.7638C15.5308 14.2888 16.2317 14 17 14C17.8885 14 18.6869 14.3863 19.2362 15.0001L20 15V12.237L18.381 9Z"
			fill="currentColor"
		/>
	</symbol>
	<symbol id="sliders" viewBox="0 0 24 24" fill="none" xmlns="http://www.w3.org/2000/svg">
		<path
			fill-rule="evenodd"
			clip-rule="evenodd"
			d="M15 15C15.7403 15 16.3866 15.4022 16.7324 15.9999L19 16C19.5523 16 20 16.4477 20 17C20 17.5523 19.5523 18 19 18L16.7318 18.0011C16.3858 18.5983 15.7398 19 15 19C14.2602 19 13.6142 18.5983 13.2682 18.0011L5 18C4.44772 18 4 17.5523 4 17C4 16.4477 4.44772 16 5 16L13.2676 15.9999C13.6134 15.4022 14.2597 15 15 15ZM9 10C9.74025 10 10.3866 10.4022 10.7324 10.9999L19 11C19.5523 11 20 11.4477 20 12C20 12.5523 19.5523 13 19 13L10.7318 13.0011C10.3858 13.5983 9.73984 14 9 14C8.26016 14 7.61415 13.5983 7.26819 13.0011L5 13C4.44772 13 4 12.5523 4 12C4 11.4477 4.44772 11 5 11L7.26761 10.9999C7.61343 10.4022 8.25975 10 9 10ZM15 5C15.7403 5 16.3866 5.40217 16.7324 5.99993L19 6C19.5523 6 20 6.44772 20 7C20 7.55228 19.5523 8 19 8L16.7318 8.00108C16.3858 8.59828 15.7398 9 15 9C14.2602 9 13.6142 8.59828 13.2682 8.00108L5 8C4.44772 8 4 7.55228 4 7C4 6.44772 4.44772 6 5 6L13.2676 5.99993C13.6134 5.40217 14.2597 5 15 5Z"
			fill="currentColor"
		/>
	</symbol>
	<symbol id="dimensions" viewBox="0 0 18 18" fill="none" xmlns="http://www.w3.org/2000/svg">
		<g clip-path="url(#clip0_8_36624)">
			<path
				fill-rule="evenodd"
				clip-rule="evenodd"
				d="M2.96231 9.31066C2.57996 9.31066 2.26443 9.59677 2.21815 9.96658L2.21231 10.0607V15.364C2.21231 15.7463 2.49842 16.0618 2.86823 16.1081L2.96231 16.114L8.26561 16.114C8.67982 16.114 9.01561 15.7782 9.01561 15.364C9.01561 14.9816 8.7295 14.6661 8.35969 14.6198L8.26561 14.614L3.71273 14.6135L3.71231 10.0607C3.71231 9.67831 3.4262 9.36278 3.05639 9.3165L2.96231 9.31066Z"
				fill="currentColor"
			/>
			<path
				d="M8.56066 3.71231C8.56066 3.32996 8.84677 3.01443 9.21658 2.96815L9.31066 2.96231L14.614 2.96231C14.9963 2.96231 15.3118 3.24842 15.3581 3.61823L15.364 3.71231L15.364 9.01561C15.364 9.42982 15.0282 9.76561 14.614 9.76561C14.2316 9.76561 13.9161 9.4795 13.8698 9.10969L13.864 9.01561L13.8635 4.46273L9.31066 4.46231C8.92831 4.46231 8.61278 4.1762 8.5665 3.80639L8.56066 3.71231Z"
				fill="currentColor"
			/>
		</g>
		<defs>
			<clipPath id="clip0_8_36624">
				<rect width="18" height="18" fill="white" />
			</clipPath>
		</defs>
	</symbol>
	<symbol id="priceLists" viewBox="0 0 18 18" fill="none" xmlns="http://www.w3.org/2000/svg">
		<path
			fill-rule="evenodd"
			clip-rule="evenodd"
			d="M11.25 1.5H11.4795L15 5.02049V5.25V15C15 15.8284 14.3284 16.5 13.5 16.5H4.5C3.67157 16.5 3 15.8284 3 15V3C3 2.17157 3.67157 1.5 4.5 1.5H11.25ZM9.75 3H4.5V15H13.5V6.75H9.75V3ZM13.2697 5.24975L11.25 3.22925V5.24975H13.2697Z"
			fill="currentColor"
		/>
		<path
			fill-rule="evenodd"
			clip-rule="evenodd"
			d="M9 6.9375C9.17259 6.9375 9.3125 7.07741 9.3125 7.25L9.31274 7.27822C9.99801 7.40357 10.5279 7.93291 10.5609 8.59109L10.5625 8.65625H9.9375C9.9375 8.32305 9.68059 8.02845 9.31293 7.91963L9.31274 9.46572C10.0205 9.59518 10.5625 10.1556 10.5625 10.8438C10.5625 11.5319 10.0205 12.0923 9.31274 12.2218L9.3125 12.25C9.3125 12.4226 9.17259 12.5625 9 12.5625C8.82741 12.5625 8.6875 12.4226 8.6875 12.25L8.68757 12.2218C8.00215 12.0966 7.47209 11.5672 7.43913 10.9089L7.4375 10.8438H8.0625C8.0625 11.177 8.31956 11.4717 8.68738 11.5805L8.68757 10.0343C7.97968 9.90498 7.4375 9.34454 7.4375 8.65625C7.4375 7.96796 7.97968 7.40752 8.68757 7.27816L8.6875 7.25C8.6875 7.07741 8.82741 6.9375 9 6.9375ZM9.31288 10.1071L9.31292 11.5803C9.68058 11.4715 9.93749 11.1769 9.93749 10.8437C9.93749 10.5105 9.68056 10.2159 9.31288 10.1071ZM8.0625 8.65627C8.0625 8.98957 8.31958 9.28426 8.68742 9.39299L8.68738 7.91956C8.31956 8.0283 8.0625 8.32298 8.0625 8.65627Z"
			fill="currentColor"
		/>
	</symbol>
	<symbol id="calendar" viewBox="0 0 24 24" fill="none" xmlns="http://www.w3.org/2000/svg">
		<path
			fill-rule="evenodd"
			clip-rule="evenodd"
			d="M16 2C16.5523 2 17 2.44772 17 3V4H20C21.1046 4 22 4.89543 22 6V20C22 21.1046 21.1046 22 20 22H4C2.89543 22 2 21.1046 2 20V6C2 4.89543 2.89543 4 4 4H7V3C7 2.44772 7.44772 2 8 2C8.55228 2 9 2.44772 9 3V4H15V3C15 2.44772 15.4477 2 16 2ZM20 11H4V20H20V11ZM7 6H4V9H20V6H17V7C17 7.55228 16.5523 8 16 8C15.4477 8 15 7.55228 15 7V6H9V7C9 7.55228 8.55228 8 8 8C7.44772 8 7 7.55228 7 7V6Z"
			fill="#7E84A3"
		/>
	</symbol>
	<symbol id="print" viewBox="0 0 18 18" fill="none" xmlns="http://www.w3.org/2000/svg">
		<mask
			id="mask0_8_45868"
			style="mask-type: alpha"
			maskUnits="userSpaceOnUse"
			x="0"
			y="0"
			width="18"
			height="18"
		>
			<rect width="18" height="18" fill="#D9D9D9" />
		</mask>
		<g mask="url(#mask0_8_45868)">
			<path
				d="M6.23083 15.3746C5.85799 15.3746 5.53882 15.2419 5.27332 14.9764C5.00781 14.7109 4.87506 14.3917 4.87506 14.0189V12.3746H3.44719C3.07435 12.3746 2.75518 12.2419 2.48968 11.9764C2.22418 11.7109 2.09143 11.3917 2.09143 11.0189V8.10541C2.09143 7.57417 2.27292 7.12887 2.63589 6.76949C2.99887 6.41013 3.44237 6.23045 3.96639 6.23045H14.0337C14.5649 6.23045 15.0102 6.41013 15.3696 6.76949C15.729 7.12887 15.9086 7.57417 15.9086 8.10541V11.0189C15.9086 11.3917 15.7759 11.7109 15.5104 11.9764C15.2449 12.2419 14.9257 12.3746 14.5529 12.3746H13.125V14.0189C13.125 14.3917 12.9923 14.7109 12.7267 14.9764C12.4612 15.2419 12.1421 15.3746 11.7692 15.3746H6.23083ZM3.44719 11.2497H4.87506C4.88468 10.8852 5.02083 10.573 5.28351 10.3129C5.54618 10.0528 5.86196 9.92274 6.23083 9.92274H11.7692C12.1381 9.92274 12.4539 10.0528 12.7166 10.3129C12.9792 10.573 13.1154 10.8852 13.125 11.2497H14.5529C14.6202 11.2497 14.6755 11.228 14.7188 11.1847C14.762 11.1415 14.7837 11.0862 14.7837 11.0189V8.10541C14.7837 7.89291 14.7118 7.71479 14.5681 7.57104C14.4243 7.42729 14.2462 7.35541 14.0337 7.35541H3.96639C3.75389 7.35541 3.57577 7.42729 3.43202 7.57104C3.28827 7.71479 3.21639 7.89291 3.21639 8.10541V11.0189C3.21639 11.0862 3.23803 11.1415 3.28131 11.1847C3.32458 11.228 3.37987 11.2497 3.44719 11.2497ZM12 6.23045V4.21123C12 4.14391 11.9784 4.08862 11.9351 4.04534C11.8918 4.00208 11.8366 3.98045 11.7692 3.98045H6.23083C6.16352 3.98045 6.10822 4.00208 6.06495 4.04534C6.02167 4.08862 6.00004 4.14391 6.00004 4.21123V6.23045H4.87506V4.21123C4.87506 3.8384 5.00781 3.51923 5.27332 3.25372C5.53882 2.98822 5.85799 2.85547 6.23083 2.85547H11.7692C12.1421 2.85547 12.4612 2.98822 12.7267 3.25372C12.9923 3.51923 13.125 3.8384 13.125 4.21123V6.23045H12ZM13.3558 9.23041C13.5683 9.23041 13.7464 9.15854 13.8902 9.01479C14.0339 8.87104 14.1058 8.69291 14.1058 8.48041C14.1058 8.26791 14.0339 8.08979 13.8902 7.94604C13.7464 7.80229 13.5683 7.73041 13.3558 7.73041C13.1433 7.73041 12.9652 7.80229 12.8214 7.94604C12.6777 8.08979 12.6058 8.26791 12.6058 8.48041C12.6058 8.69291 12.6777 8.87104 12.8214 9.01479C12.9652 9.15854 13.1433 9.23041 13.3558 9.23041ZM12 14.0189V11.2785C12 11.2112 11.9784 11.1559 11.9351 11.1126C11.8918 11.0694 11.8366 11.0477 11.7692 11.0477H6.23083C6.16352 11.0477 6.10822 11.0694 6.06495 11.1126C6.02167 11.1559 6.00004 11.2112 6.00004 11.2785V14.0189C6.00004 14.0862 6.02167 14.1415 6.06495 14.1847C6.10822 14.228 6.16352 14.2497 6.23083 14.2497H11.7692C11.8366 14.2497 11.8918 14.228 11.9351 14.1847C11.9784 14.1415 12 14.0862 12 14.0189Z"
				fill="currentColor"
			/>
		</g>
	</symbol>
	<symbol id="dotsInCicle" viewBox="0 0 18 18" fill="none" xmlns="http://www.w3.org/2000/svg">
		<path
			fill-rule="evenodd"
			clip-rule="evenodd"
			d="M9 1.5C13.1421 1.5 16.5 4.85786 16.5 9C16.5 13.1421 13.1421 16.5 9 16.5C4.85786 16.5 1.5 13.1421 1.5 9C1.5 4.85786 4.85786 1.5 9 1.5ZM9 3C5.68629 3 3 5.68629 3 9C3 12.3137 5.68629 15 9 15C12.3137 15 15 12.3137 15 9C15 5.68629 12.3137 3 9 3ZM9.75 8.25V9.75H8.25V8.25H9.75ZM6.75 8.25V9.75H5.25V8.25H6.75ZM12.75 8.25V9.75H11.25V8.25H12.75Z"
			fill="currentColor"
		/>
	</symbol>
	<symbol id="crossInCircle" viewBox="0 0 24 24" fill="none" xmlns="http://www.w3.org/2000/svg">
		<path
			fill-rule="evenodd"
			clip-rule="evenodd"
			d="M12 2C17.5228 2 22 6.47715 22 12C22 17.5228 17.5228 22 12 22C6.47715 22 2 17.5228 2 12C2 6.47715 6.47715 2 12 2ZM12 4C7.58172 4 4 7.58172 4 12C4 16.4183 7.58172 20 12 20C16.4183 20 20 16.4183 20 12C20 7.58172 16.4183 4 12 4ZM15.694 8.30602C16.102 8.71405 16.102 9.37559 15.694 9.78361L13.4783 11.9993L15.694 14.2164C16.102 14.6244 16.102 15.286 15.694 15.694C15.286 16.102 14.6244 16.102 14.2164 15.694L12.0007 13.4769L9.78361 15.694C9.37559 16.102 8.71405 16.102 8.30602 15.694C7.89799 15.286 7.89799 14.6244 8.30602 14.2164L10.5231 11.9993L8.30602 9.78361C7.89799 9.37559 7.89799 8.71405 8.30602 8.30602C8.71405 7.89799 9.37559 7.89799 9.78361 8.30602L12.0007 10.5217L14.2164 8.30602C14.6244 7.89799 15.286 7.89799 15.694 8.30602Z"
			fill="currentColor"
		/>
	</symbol>
	<symbol id="plusInCircle" viewBox="0 0 24 24" fill="none" xmlns="http://www.w3.org/2000/svg">
		<path
			fill-rule="evenodd"
			clip-rule="evenodd"
			d="M12 2C17.5228 2 22 6.47715 22 12C22 17.5228 17.5228 22 12 22C6.47715 22 2 17.5228 2 12C2 6.47715 6.47715 2 12 2ZM12 4C7.58172 4 4 7.58172 4 12C4 16.4183 7.58172 20 12 20C16.4183 20 20 16.4183 20 12C20 7.58172 16.4183 4 12 4ZM12 7C12.5523 7 13 7.44772 13 8V10.999L16 11C16.5523 11 17 11.4477 17 12C17 12.5523 16.5523 13 16 13L13 12.999V16C13 16.5523 12.5523 17 12 17C11.4477 17 11 16.5523 11 16V12.999L8 13C7.44772 13 7 12.5523 7 12C7 11.4477 7.44772 11 8 11L11 10.999V8C11 7.44772 11.4477 7 12 7Z"
			fill="#7E84A3"
		/>
	</symbol>
	<symbol id="copy" viewBox="0 0 24 24" fill="none" xmlns="http://www.w3.org/2000/svg">
		<path
			fill-rule="evenodd"
			clip-rule="evenodd"
			d="M14 3C15.1046 3 16 3.89543 16 5V7H18C19.1046 7 20 7.89543 20 9V19C20 20.1046 19.1046 21 18 21H10C8.89543 21 8 20.1046 8 19V17H6C4.89543 17 4 16.1046 4 15V5C4 3.89543 4.89543 3 6 3H14ZM10 19H18V9H10V19ZM14 7V5H6V15H8V9C8 7.89543 8.89543 7 10 7H14Z"
			fill="currentColor"
		/>
	</symbol>
	<symbol id="pin1" xmlns="http://www.w3.org/2000/svg" viewBox="0 0 24 24" color="currentColor" fill="none">
		<path
			d="M12 16V21"
			stroke-width="1.5"
			stroke="currentColor"
			stroke-linecap="round"
			stroke-linejoin="round"
		/>
		<path
			stroke-width="1.5"
			stroke="currentColor"
			stroke-linecap="round"
			stroke-linejoin="round"
			class="navigation__pin--fill"
			d="M8 5.2918C8 5.02079 8 4.88529 8.01312 4.77132C8.1194 3.84789 8.84789 3.1194 9.77133 3.01312C9.88529 3 10.0208 3 10.2918 3H13.7082C13.9792 3 14.1147 3 14.2287 3.01312C15.1521 3.1194 15.8806 3.84789 15.9869 4.77132C16 4.88529 16 5.02079 16 5.2918C16 5.37885 16 5.42237 15.9967 5.46264C15.9708 5.78281 15.7927 6.07104 15.5179 6.2374C15.4834 6.25832 15.4444 6.27779 15.3666 6.31672L15.1055 6.44726C14.7021 6.64897 14.5003 6.74983 14.3681 6.90564C14.26 7.03286 14.1856 7.18509 14.1515 7.34846C14.1097 7.54854 14.1539 7.76968 14.2424 8.21197L15 12H15.3333C15.9533 12 16.2633 12 16.5176 12.0681C17.2078 12.2531 17.7469 12.7922 17.9319 13.4824C18 13.7367 18 14.0467 18 14.6667C18 14.9767 18 15.1317 17.9659 15.2588C17.8735 15.6039 17.6039 15.8735 17.2588 15.9659C17.1317 16 16.9767 16 16.6667 16H7.33333C7.02334 16 6.86835 16 6.74118 15.9659C6.39609 15.8735 6.12654 15.6039 6.03407 15.2588C6 15.1317 6 14.9767 6 14.6667C6 14.0467 6 13.7367 6.06815 13.4824C6.25308 12.7922 6.79218 12.2531 7.48236 12.0681C7.73669 12 8.04669 12 8.66667 12H9L9.75761 8.21197C9.84606 7.76968 9.89029 7.54854 9.84852 7.34846C9.81441 7.18509 9.73995 7.03286 9.63194 6.90564C9.49965 6.74983 9.29794 6.64897 8.89452 6.44726L8.63344 6.31672C8.55558 6.27779 8.51665 6.25832 8.48208 6.2374C8.20731 6.07104 8.02917 5.78281 8.00326 5.46264C8 5.42237 8 5.37885 8 5.2918Z"
		/>
	</symbol>
	<symbol id="pin2" xmlns="http://www.w3.org/2000/svg" viewBox="0 0 24 24" color="currentColor" fill="none">
		<path
			d="M12 16V21"
			stroke-width="1.5"
			stroke="currentColor"
			stroke-linecap="round"
			stroke-linejoin="round"
		/>
		<path
			fill="#7e84a3"
			stroke-width="1.5"
			stroke="currentColor"
			stroke-linecap="round"
			stroke-linejoin="round"
			class="navigation__pin--fill"
			d="M8 5.2918C8 5.02079 8 4.88529 8.01312 4.77132C8.1194 3.84789 8.84789 3.1194 9.77133 3.01312C9.88529 3 10.0208 3 10.2918 3H13.7082C13.9792 3 14.1147 3 14.2287 3.01312C15.1521 3.1194 15.8806 3.84789 15.9869 4.77132C16 4.88529 16 5.02079 16 5.2918C16 5.37885 16 5.42237 15.9967 5.46264C15.9708 5.78281 15.7927 6.07104 15.5179 6.2374C15.4834 6.25832 15.4444 6.27779 15.3666 6.31672L15.1055 6.44726C14.7021 6.64897 14.5003 6.74983 14.3681 6.90564C14.26 7.03286 14.1856 7.18509 14.1515 7.34846C14.1097 7.54854 14.1539 7.76968 14.2424 8.21197L15 12H15.3333C15.9533 12 16.2633 12 16.5176 12.0681C17.2078 12.2531 17.7469 12.7922 17.9319 13.4824C18 13.7367 18 14.0467 18 14.6667C18 14.9767 18 15.1317 17.9659 15.2588C17.8735 15.6039 17.6039 15.8735 17.2588 15.9659C17.1317 16 16.9767 16 16.6667 16H7.33333C7.02334 16 6.86835 16 6.74118 15.9659C6.39609 15.8735 6.12654 15.6039 6.03407 15.2588C6 15.1317 6 14.9767 6 14.6667C6 14.0467 6 13.7367 6.06815 13.4824C6.25308 12.7922 6.79218 12.2531 7.48236 12.0681C7.73669 12 8.04669 12 8.66667 12H9L9.75761 8.21197C9.84606 7.76968 9.89029 7.54854 9.84852 7.34846C9.81441 7.18509 9.73995 7.03286 9.63194 6.90564C9.49965 6.74983 9.29794 6.64897 8.89452 6.44726L8.63344 6.31672C8.55558 6.27779 8.51665 6.25832 8.48208 6.2374C8.20731 6.07104 8.02917 5.78281 8.00326 5.46264C8 5.42237 8 5.37885 8 5.2918Z"
		/>
	</symbol>
	<symbol id="stop" viewBox="0 0 24 24" fill="none" xmlns="http://www.w3.org/2000/svg">
		<path
			fill-rule="evenodd"
			clip-rule="evenodd"
			d="M12 2C17.5228 2 22 6.47715 22 12C22 17.5228 17.5228 22 12 22C6.47715 22 2 17.5228 2 12C2 6.47715 6.47715 2 12 2ZM18.3472 7.12973L7.12973 18.3472C8.47861 19.3838 10.1673 20 12 20C16.4183 20 20 16.4183 20 12C20 10.1673 19.3838 8.47861 18.3472 7.12973ZM12 4C7.58172 4 4 7.58172 4 12C4 13.8327 4.61624 15.5214 5.65281 16.8703L16.8703 5.65281C15.5214 4.61624 13.8327 4 12 4Z"
			fill="currentColor"
		/>
	</symbol>
	<symbol id="start" viewBox="0 0 24 24" fill="none" xmlns="http://www.w3.org/2000/svg">
		<path
			fill-rule="evenodd"
			clip-rule="evenodd"
			d="M7.0362 4C7.36744 4 7.69368 4.07759 7.98662 4.22605L18.9138 10.2706C19.9083 10.7747 20.2891 11.9574 19.7642 12.9124C19.5728 13.2606 19.2764 13.5452 18.9138 13.729L7.98662 19.7736C6.99207 20.2776 5.76032 19.912 5.23542 18.957C5.08081 18.6757 5 18.3624 5 18.0444V5.95523C5 4.87539 5.91164 4 7.0362 4ZM7.0362 5.95523V18.0444L17.9622 11.9998L7.0362 5.95523Z"
			fill="currentColor"
		/>
	</symbol>
	<symbol id="complete" viewBox="0 0 24 24" fill="none" xmlns="http://www.w3.org/2000/svg">
		<path
			fill-rule="evenodd"
			clip-rule="evenodd"
			d="M17.9526 6.70416C18.3344 6.31758 18.9592 6.31997 19.338 6.70944C19.7059 7.08768 19.7039 7.69061 19.3335 8.06641L9.544 18L4.6645 13.0325C4.29508 12.6564 4.29358 12.0542 4.66113 11.6763C5.0403 11.2864 5.66581 11.2843 6.04757 11.6716L9.544 15.219L17.9526 6.70416Z"
			fill="currentColor"
		/>
	</symbol>
	<symbol id="factory" viewBox="0 0 24 24" fill="none" xmlns="http://www.w3.org/2000/svg">
		<path
			fill-rule="evenodd"
			clip-rule="evenodd"
			d="M13.9286 8.73213V12.336L16.9269 10.3367L19.0714 8.90698V17.7321C19.0714 17.9026 19.0037 18.0661 18.8831 18.1867C18.7626 18.3073 18.5991 18.375 18.4286 18.375H5.57143C5.40093 18.375 5.23742 18.3073 5.11686 18.1867C4.9963 18.0661 4.92857 17.9026 4.92857 17.7321V5.51784C4.92857 5.34734 4.9963 5.18383 5.11686 5.06327C5.23742 4.94271 5.40093 4.87498 5.57143 4.87498H7.5C7.6705 4.87498 7.83401 4.94271 7.95457 5.06327C8.07513 5.18383 8.14286 5.34734 8.14286 5.51784V12.5198L11.2054 10.2917L13.9286 8.3117V8.73213ZM10.0714 5.51784V8.73213L12 7.3307L13.161 6.48598C13.4141 6.30166 13.7133 6.19097 14.0255 6.16615C14.3376 6.14133 14.6506 6.20335 14.9296 6.34535C15.2087 6.48736 15.4431 6.7038 15.6068 6.97074C15.7705 7.23768 15.8571 7.54471 15.8571 7.85784V8.73213L17.1686 7.85784L17.7639 7.46055L18.3154 7.09413C18.5754 6.92078 18.8776 6.82124 19.1897 6.80611C19.5019 6.79099 19.8122 6.86086 20.0878 7.00827C20.3633 7.15567 20.5937 7.37509 20.7544 7.64313C20.915 7.91116 20.9999 8.21777 21 8.53027V17.7321C21 18.4141 20.7291 19.0682 20.2468 19.5504C19.7646 20.0326 19.1106 20.3036 18.4286 20.3036H5.57143C4.88944 20.3036 4.23539 20.0326 3.75315 19.5504C3.27092 19.0682 3 18.4141 3 17.7321V5.51784C3 4.83585 3.27092 4.1818 3.75315 3.69957C4.23539 3.21733 4.88944 2.94641 5.57143 2.94641H7.5C8.18199 2.94641 8.83604 3.21733 9.31827 3.69957C9.80051 4.1818 10.0714 4.83585 10.0714 5.51784ZM7.82143 14.5178C7.56568 14.5178 7.32041 14.6194 7.13958 14.8003C6.95874 14.9811 6.85714 15.2264 6.85714 15.4821C6.85714 15.7379 6.95874 15.9831 7.13958 16.164C7.32041 16.3448 7.56568 16.4464 7.82143 16.4464H16.1786C16.4343 16.4464 16.6796 16.3448 16.8604 16.164C17.0413 15.9831 17.1429 15.7379 17.1429 15.4821C17.1429 15.2264 17.0413 14.9811 16.8604 14.8003C16.6796 14.6194 16.4343 14.5178 16.1786 14.5178H7.82143Z"
			fill="currentColor"
		/>
	</symbol>

	<!-- Settings -->
	<symbol id="organisation" viewBox="0 0 24 24" fill="none" xmlns="http://www.w3.org/2000/svg">
		<path
			fill-rule="evenodd"
			clip-rule="evenodd"
			d="M13.3287 3.51594C13.3873 3.56801 13.4428 3.62347 13.4948 3.68204L19.4948 10.432C19.8202 10.7981 20 11.2709 20 11.7608V19.0004C20 20.1049 19.1046 21.0004 18 21.0004H14.002C14.0013 21.0004 14.0007 21.0004 14 21.0004H10C9.99934 21.0004 9.99868 21.0004 9.99803 21.0004H6C4.89543 21.0004 4 20.1049 4 19.0004V11.7608C4 11.2709 4.17976 10.7981 4.50518 10.432L10.5052 3.68204C11.239 2.85647 12.5032 2.78211 13.3287 3.51594ZM11 19.0004H13V15.0004H11V19.0004ZM15 19.0004V14.0004C15 13.4481 14.5523 13.0004 14 13.0004H10C9.44772 13.0004 9 13.4481 9 14.0004V19.0004H6V11.7608L12 5.01076L18 11.7608V19.0004H15Z"
			fill="currentColor"
		/>
	</symbol>
	<symbol id="financial" viewBox="0 0 24 24" fill="none" xmlns="http://www.w3.org/2000/svg">
		<path
			fill-rule="evenodd"
			clip-rule="evenodd"
			d="M11.5459 3.57029C11.9641 3.15205 12.5498 2.9466 13.1377 3.01192L21 3L20.9881 10.8623C21.0534 11.4502 20.848 12.0359 20.4297 12.4541L11.4541 21.4297C10.6937 22.1901 9.46093 22.1901 8.70056 21.4297L2.57027 15.2994C1.80991 14.5391 1.80991 13.3063 2.57027 12.5459L11.5459 3.57029ZM13 5L3.94704 13.9227L10.0773 20.053L19 11V5H13ZM14 8L16 10L14 12L12 10L14 8Z"
			fill="currentColor"
		/>
	</symbol>
	<symbol id="stock" viewBox="0 0 24 24" fill="none" xmlns="http://www.w3.org/2000/svg">
		<path
			fill-rule="evenodd"
			clip-rule="evenodd"
			d="M18 4C19.1046 4 20 4.89543 20 6V10H19V18C19 19.1046 18.1046 20 17 20H7C5.89543 20 5 19.1046 5 18V10H4V6C4 4.89543 4.89543 4 6 4H18ZM17 10H7V18H17V10ZM15 12V14H9V12H15ZM18 6H6V8H18V6Z"
			fill="currentColor"
		/>
	</symbol>
	<symbol id="sales" viewBox="0 0 24 24" fill="none" xmlns="http://www.w3.org/2000/svg">
		<path
			fill-rule="evenodd"
			clip-rule="evenodd"
			d="M18.7857 19C19.4563 19 20 19.4477 20 20C20 20.5523 19.4563 21 18.7857 21H4.21429C3.54365 21 3 20.5523 3 20C3 19.4477 3.54365 19 4.21429 19H18.7857ZM18 3C19.1046 3 20 3.89543 20 5V17H3V13C3 11.8954 3.89543 11 5 11H8V9C8 7.89543 8.89543 7 10 7H13V5C13 3.89543 13.8954 3 15 3H18ZM8 13H5V15H8V13ZM13 9H10V15H13V9ZM18 5H15V15H18V5Z"
			fill="currentColor"
		/>
	</symbol>
	<symbol id="purchases" viewBox="0 0 24 24" fill="none" xmlns="http://www.w3.org/2000/svg">
		<path
			fill-rule="evenodd"
			clip-rule="evenodd"
			d="M13 4C14.1046 4 15 4.89543 15 6V7H19.618L22 11.7639V17H20C20 18.6569 18.6569 20 17 20C15.3431 20 14 18.6569 14 17H10C10 18.6569 8.65685 20 7 20C5.34315 20 4 18.6569 4 17H2V6C2 4.89543 2.89543 4 4 4H13ZM7 16C6.72386 16 6 16 6 16C6 16 6 16.7239 6 17C6 17.2761 6 18 6 18C6 18 6.72386 18 7 18C7.27614 18 8 18 8 18C8 18 8 17.2761 8 17C8 16.7239 8 16 8 16C8 16 7.27614 16 7 16ZM17 16C16.7449 16 16 16 16 16V17C16 17.2761 16 18 16 18C16 18 16.7239 18 17 18C17.2761 18 18 18 18 18C18 18 18 17.2761 18 17C18 16.7239 18 16 18 16C18 16 17.2761 16 17 16ZM13 6H4V15L4.76381 15.0001C5.31313 14.3863 6.11145 14 7 14C7.88855 14 8.68687 14.3863 9.23619 15.0001L13 15V6ZM18.381 9H15L15.0001 14.7638C15.5308 14.2888 16.2317 14 17 14C17.8885 14 18.6869 14.3863 19.2362 15.0001L20 15V12.237L18.381 9Z"
			fill="currentColor"
		/>
	</symbol>
	<symbol id="productMeasurement" viewBox="0 0 24 24" fill="none" xmlns="http://www.w3.org/2000/svg">
		<path
			fill-rule="evenodd"
			clip-rule="evenodd"
			d="M15 15C15.7403 15 16.3866 15.4022 16.7324 15.9999L19 16C19.5523 16 20 16.4477 20 17C20 17.5523 19.5523 18 19 18L16.7318 18.0011C16.3858 18.5983 15.7398 19 15 19C14.2602 19 13.6142 18.5983 13.2682 18.0011L5 18C4.44772 18 4 17.5523 4 17C4 16.4477 4.44772 16 5 16L13.2676 15.9999C13.6134 15.4022 14.2597 15 15 15ZM9 10C9.74025 10 10.3866 10.4022 10.7324 10.9999L19 11C19.5523 11 20 11.4477 20 12C20 12.5523 19.5523 13 19 13L10.7318 13.0011C10.3858 13.5983 9.73984 14 9 14C8.26016 14 7.61415 13.5983 7.26819 13.0011L5 13C4.44772 13 4 12.5523 4 12C4 11.4477 4.44772 11 5 11L7.26761 10.9999C7.61343 10.4022 8.25975 10 9 10ZM15 5C15.7403 5 16.3866 5.40217 16.7324 5.99993L19 6C19.5523 6 20 6.44772 20 7C20 7.55228 19.5523 8 19 8L16.7318 8.00108C16.3858 8.59828 15.7398 9 15 9C14.2602 9 13.6142 8.59828 13.2682 8.00108L5 8C4.44772 8 4 7.55228 4 7C4 6.44772 4.44772 6 5 6L13.2676 5.99993C13.6134 5.40217 14.2597 5 15 5Z"
			fill="currentColor"
		/>
	</symbol>
	<symbol id="transactionDocuments" viewBox="0 0 24 24" fill="none" xmlns="http://www.w3.org/2000/svg">
		<path
			fill-rule="evenodd"
			clip-rule="evenodd"
			d="M15 2H15.306L20 6.69398V7V20C20 21.1046 19.1046 22 18 22H6C4.89543 22 4 21.1046 4 20V4C4 2.89543 4.89543 2 6 2H15ZM13 4H6V20H18V9H13V4ZM17.693 7L15 4.306V7H17.693Z"
			fill="currentColor"
		/>
	</symbol>
	<symbol id="checkInCircle" viewBox="0 0 24 24" fill="none" xmlns="http://www.w3.org/2000/svg">
		<path
			fill-rule="evenodd"
			clip-rule="evenodd"
			d="M12 2C17.5228 2 22 6.47715 22 12C22 17.5228 17.5228 22 12 22C6.47715 22 2 17.5228 2 12C2 6.47715 6.47715 2 12 2ZM12 4C7.58172 4 4 7.58172 4 12C4 16.4183 7.58172 20 12 20C16.4183 20 20 16.4183 20 12C20 7.58172 16.4183 4 12 4ZM14.9529 8.71077C15.334 8.32113 15.9612 8.322 16.3411 8.71269C16.7077 9.0896 16.7071 9.69001 16.3397 10.0662L10.544 16L7.65726 13.0318C7.29134 12.6556 7.29134 12.0565 7.65726 11.6803C8.0378 11.289 8.66623 11.2889 9.04685 11.6801L10.544 13.219L14.9529 8.71077Z"
			fill="currentColor"
		/>
	</symbol>
	<symbol id="handUp" viewBox="0 0 24 24" fill="none" xmlns="http://www.w3.org/2000/svg">
		<path
			d="M19.6513 18.3H9.75134V21H19.6513V18.3Z"
			stroke-width="1.8"
			stroke="currentColor"
			stroke-linejoin="round"
		/>
		<path
			d="M9.75138 18.3C6.81783 15.0947 5.13438 13.2375 4.70148 12.7272C4.05213 11.9622 4.32483 11.0982 5.95023 11.0982C7.57563 11.0982 8.51298 13.4765 9.75138 13.4765C9.75903 13.4783 9.75948 10.4367 9.75273 4.3518C9.75249 4.17444 9.78721 3.99877 9.85489 3.83483C9.92257 3.67089 10.0219 3.5219 10.1472 3.39636C10.2725 3.27082 10.4213 3.1712 10.5851 3.10319C10.7489 3.03518 10.9245 3.00012 11.1018 3H11.1032C11.2807 2.99994 11.4566 3.03486 11.6206 3.10277C11.7847 3.17068 11.9338 3.27024 12.0593 3.39577C12.1849 3.52131 12.2845 3.67035 12.3525 3.83438C12.4204 3.99842 12.4554 4.17424 12.4554 4.3518V7.9563C16.0428 8.4999 17.9936 8.80005 18.3068 8.8563C18.777 8.9409 19.6514 9.39 19.6514 10.6806V18.3H9.75138Z"
			stroke-width="1.8"
			stroke="currentColor"
			stroke-linejoin="round"
		/>
	</symbol>

	<!-- Dashboard -->
	<symbol id="statistic" viewBox="0 0 56 56" fill="none" xmlns="http://www.w3.org/2000/svg">
		<circle cx="28" cy="28" r="28" fill="#ECF2FF" />
		<path
			fill-rule="evenodd"
			clip-rule="evenodd"
			d="M34.7857 35C35.4563 35 36 35.4477 36 36C36 36.5523 35.4563 37 34.7857 37H20.2143C19.5437 37 19 36.5523 19 36C19 35.4477 19.5437 35 20.2143 35H34.7857ZM34 19C35.1046 19 36 19.8954 36 21V33H19V29C19 27.8954 19.8954 27 21 27H24V25C24 23.8954 24.8954 23 26 23H29V21C29 19.8954 29.8954 19 31 19H34ZM24 29H21V31H24V29ZM29 25H26V31H29V25ZM34 21H31V31H34V21Z"
			fill="#1E5EFF"
		/>
	</symbol>
	<symbol id="chart1" viewBox="0 0 148 80" fill="none" xmlns="http://www.w3.org/2000/svg">
		<g clip-path="url(#clip0_8_37409)">
			<rect width="148" height="80" fill="white" />
			<rect x="1" y="55" width="21" height="25" rx="4" fill="#D9E4FF" />
			<rect x="26" y="40" width="21" height="40" rx="4" fill="#D9E4FF" />
			<rect x="51" y="14" width="21" height="66" rx="4" fill="#1E5EFF" />
			<rect x="76" y="31" width="21" height="49" rx="4" fill="#D9E4FF" />
			<rect x="101" y="23" width="21" height="57" rx="4" fill="#D9E4FF" />
			<rect x="126" y="40" width="21" height="40" rx="4" fill="#D9E4FF" />
		</g>
		<defs>
			<clipPath id="clip0_8_37409">
				<rect width="148" height="80" fill="white" />
			</clipPath>
		</defs>
	</symbol>
	<symbol id="chart2" viewBox="0 0 148 80" fill="none" xmlns="http://www.w3.org/2000/svg">
		<g clip-path="url(#clip0_8_37424)">
			<rect width="148" height="80" fill="white" />
			<rect x="1" y="55" width="21" height="25" rx="4" fill="#C4F8E2" />
			<rect x="76" y="40" width="21" height="40" rx="4" fill="#C4F8E2" />
			<rect x="101" y="14" width="21" height="66" rx="4" fill="#1FD286" />
			<rect x="26" y="31" width="21" height="49" rx="4" fill="#C4F8E2" />
			<rect x="51" y="23" width="21" height="57" rx="4" fill="#C4F8E2" />
			<rect x="126" y="40" width="21" height="40" rx="4" fill="#C4F8E2" />
		</g>
		<defs>
			<clipPath id="clip0_8_37424">
				<rect width="148" height="80" fill="white" />
			</clipPath>
		</defs>
	</symbol>
	<symbol id="chart3" viewBox="0 0 148 80" fill="none" xmlns="http://www.w3.org/2000/svg">
		<g clip-path="url(#clip0_8_37439)">
			<rect width="148" height="80" fill="white" />
			<rect x="1" y="55" width="21" height="25" rx="4" fill="#FFF4C9" />
			<rect x="101" y="40" width="21" height="40" rx="4" fill="#FFF4C9" />
			<rect x="76" y="14" width="21" height="66" rx="4" fill="#FFC700" />
			<rect x="126" y="31" width="21" height="49" rx="4" fill="#FFF4C9" />
			<rect x="51" y="23" width="21" height="57" rx="4" fill="#FFF4C9" />
			<rect x="26" y="40" width="21" height="40" rx="4" fill="#FFF4C9" />
		</g>
		<defs>
			<clipPath id="clip0_8_37439">
				<rect width="148" height="80" fill="white" />
			</clipPath>
		</defs>
	</symbol>
</svg>
